<svg width="494" height="494" viewBox="0 0 494 494" fill="none" xmlns="http://www.w3.org/2000/svg">
<rect width="494" height="494" rx="247" fill="black"/>
<path d="M355.783 270.376C356.783 270.043 358.283 269.876 360.283 269.876C365.95 269.876 368.783 273.543 368.783 280.876C368.783 284.876 367.866 288.293 366.033 291.126C364.366 293.793 361.7 295.46 358.033 296.126C342.866 298.96 327.95 302.126 313.283 305.626L312.533 311.626C307.866 344.46 298.533 368.71 284.533 384.376C270.7 400.21 253.366 408.126 232.533 408.126C218.7 408.126 207.95 404.71 200.283 397.876C192.783 391.21 189.033 382.626 189.033 372.126C189.033 354.626 196.866 339.043 212.533 325.376C228.2 311.71 251.95 299.626 283.783 289.126L288.783 253.876C289.45 249.876 290.283 244.543 291.283 237.876C283.45 258.543 273.45 273.96 261.283 284.126C249.116 294.293 235.533 299.376 220.533 299.376C206.2 299.376 195.283 295.043 187.783 286.376C180.283 277.543 176.533 266.21 176.533 252.376C176.533 246.21 177.2 239.46 178.533 232.126C179.866 224.626 181.95 214.543 184.783 201.876C187.283 190.376 189.116 181.21 190.283 174.376C191.616 167.543 192.283 161.46 192.283 156.126C192.283 148.126 189.2 144.126 183.033 144.126C178.2 144.126 172.45 146.543 165.783 151.376C159.283 156.043 152.366 163.293 145.033 173.126C142.7 176.293 140.116 177.876 137.283 177.876C134.95 177.876 132.866 176.793 131.033 174.626C129.366 172.293 128.533 169.71 128.533 166.876C128.533 161.71 130.866 155.876 135.533 149.376C152.533 126.043 172.45 114.376 195.283 114.376C205.45 114.376 213.366 117.46 219.033 123.626C224.866 129.793 227.783 138.876 227.783 150.876C227.783 159.543 226.95 168.46 225.283 177.626C223.783 186.626 221.45 198.126 218.283 212.126C216.283 220.46 214.783 227.21 213.783 232.376C212.783 237.376 212.283 241.543 212.283 244.876C212.283 253.376 213.783 259.46 216.783 263.126C219.783 266.793 225.033 268.626 232.533 268.626C241.533 268.626 250.7 263.71 260.033 253.876C269.533 243.876 278.033 228.793 285.533 208.626C293.2 188.46 298.7 163.793 302.033 134.626C302.866 127.293 304.783 122.126 307.783 119.126C310.783 115.96 315.116 114.376 320.783 114.376C332.45 114.376 338.283 120.21 338.283 131.876C338.283 133.876 338.2 135.46 338.033 136.626C334.533 161.46 331.283 183.876 328.283 203.876C326.616 215.876 324.783 228.21 322.783 240.876C320.95 253.543 319.116 266.376 317.283 279.376C329.45 276.043 342.283 273.043 355.783 270.376ZM280.033 315.376C239.7 329.376 219.533 346.376 219.533 366.376C219.533 371.043 220.95 374.876 223.783 377.876C226.783 381.043 230.95 382.626 236.283 382.626C259.45 382.626 273.95 360.793 279.783 317.126L280.033 315.376Z" fill="white"/>
</svg>
