<?xml version="1.0" encoding="UTF-8"?>
<svg version="1.1" xmlns="http://www.w3.org/2000/svg" width="512" height="512">
<path d="M0 0 C0.90186035 0.17692383 1.8037207 0.35384766 2.73291016 0.53613281 C9.20599895 1.83501287 15.60888488 3.34657126 22 5 C22.82000488 5.20963379 23.64000977 5.41926758 24.48486328 5.63525391 C58.17024255 14.44485883 88.96649009 31.29229379 116 53 C117.50046875 54.19109375 117.50046875 54.19109375 119.03125 55.40625 C132.89778302 66.7515952 146.2899831 79.6029281 157 94 C157.45971191 94.59973633 157.91942383 95.19947266 158.39306641 95.81738281 C183.7457788 128.9479423 200.63105558 166.93602242 208 208 C208.16226074 208.83128418 208.32452148 209.66256836 208.49169922 210.51904297 C213.76694663 238.13651472 213.55756833 270.45402542 208 298 C207.82307617 298.90186035 207.64615234 299.8037207 207.46386719 300.73291016 C206.16498713 307.20599895 204.65342874 313.60888488 203 320 C202.79036621 320.82000488 202.58073242 321.64000977 202.36474609 322.48486328 C193.55514117 356.17024255 176.70770621 386.96649009 155 414 C154.2059375 415.0003125 153.411875 416.000625 152.59375 417.03125 C141.2484048 430.89778302 128.3970719 444.2899831 114 455 C113.10039551 455.68956787 113.10039551 455.68956787 112.18261719 456.39306641 C79.0520577 481.7457788 41.06397758 498.63105558 0 506 C-0.83128418 506.16226074 -1.66256836 506.32452148 -2.51904297 506.49169922 C-30.13651472 511.76694663 -62.45402542 511.55756833 -90 506 C-90.90186035 505.82307617 -91.8037207 505.64615234 -92.73291016 505.46386719 C-99.20599895 504.16498713 -105.60888488 502.65342874 -112 501 C-112.82000488 500.79036621 -113.64000977 500.58073242 -114.48486328 500.36474609 C-148.17024255 491.55514117 -178.96649009 474.70770621 -206 453 C-207.0003125 452.2059375 -208.000625 451.411875 -209.03125 450.59375 C-222.89778302 439.2484048 -236.2899831 426.3970719 -247 412 C-247.68956787 411.10039551 -247.68956787 411.10039551 -248.39306641 410.18261719 C-273.7457788 377.0520577 -290.63105558 339.06397758 -298 298 C-298.16226074 297.16871582 -298.32452148 296.33743164 -298.49169922 295.48095703 C-303.76694663 267.86348528 -303.55756833 235.54597458 -298 208 C-297.82307617 207.09813965 -297.64615234 206.1962793 -297.46386719 205.26708984 C-296.16498713 198.79400105 -294.65342874 192.39111512 -293 186 C-292.79036621 185.17999512 -292.58073242 184.35999023 -292.36474609 183.51513672 C-283.55514117 149.82975745 -266.70770621 119.03350991 -245 92 C-244.2059375 90.9996875 -243.411875 89.999375 -242.59375 88.96875 C-231.2484048 75.10221698 -218.3970719 61.7100169 -204 51 C-203.40026367 50.54028809 -202.80052734 50.08057617 -202.18261719 49.60693359 C-169.0520577 24.2542212 -131.06397758 7.36894442 -90 0 C-89.16871582 -0.16226074 -88.33743164 -0.32452148 -87.48095703 -0.49169922 C-59.86348528 -5.76694663 -27.54597458 -5.55756833 0 0 Z " fill="#FEFEFE" transform="translate(301,3)"/>
<path d="M0 0 C0.90186035 0.17692383 1.8037207 0.35384766 2.73291016 0.53613281 C9.20599895 1.83501287 15.60888488 3.34657126 22 5 C22.82000488 5.20963379 23.64000977 5.41926758 24.48486328 5.63525391 C58.17024255 14.44485883 88.96649009 31.29229379 116 53 C117.50046875 54.19109375 117.50046875 54.19109375 119.03125 55.40625 C132.89778302 66.7515952 146.2899831 79.6029281 157 94 C157.45971191 94.59973633 157.91942383 95.19947266 158.39306641 95.81738281 C183.7457788 128.9479423 200.63105558 166.93602242 208 208 C208.16226074 208.83128418 208.32452148 209.66256836 208.49169922 210.51904297 C213.76694663 238.13651472 213.55756833 270.45402542 208 298 C207.82307617 298.90186035 207.64615234 299.8037207 207.46386719 300.73291016 C206.16498713 307.20599895 204.65342874 313.60888488 203 320 C202.79036621 320.82000488 202.58073242 321.64000977 202.36474609 322.48486328 C193.55514117 356.17024255 176.70770621 386.96649009 155 414 C154.2059375 415.0003125 153.411875 416.000625 152.59375 417.03125 C141.2484048 430.89778302 128.3970719 444.2899831 114 455 C113.10039551 455.68956787 113.10039551 455.68956787 112.18261719 456.39306641 C79.0520577 481.7457788 41.06397758 498.63105558 0 506 C-0.83128418 506.16226074 -1.66256836 506.32452148 -2.51904297 506.49169922 C-30.13651472 511.76694663 -62.45402542 511.55756833 -90 506 C-90.90186035 505.82307617 -91.8037207 505.64615234 -92.73291016 505.46386719 C-99.20599895 504.16498713 -105.60888488 502.65342874 -112 501 C-112.82000488 500.79036621 -113.64000977 500.58073242 -114.48486328 500.36474609 C-148.17024255 491.55514117 -178.96649009 474.70770621 -206 453 C-207.0003125 452.2059375 -208.000625 451.411875 -209.03125 450.59375 C-222.89778302 439.2484048 -236.2899831 426.3970719 -247 412 C-247.68956787 411.10039551 -247.68956787 411.10039551 -248.39306641 410.18261719 C-273.7457788 377.0520577 -290.63105558 339.06397758 -298 298 C-298.16226074 297.16871582 -298.32452148 296.33743164 -298.49169922 295.48095703 C-303.76694663 267.86348528 -303.55756833 235.54597458 -298 208 C-297.82307617 207.09813965 -297.64615234 206.1962793 -297.46386719 205.26708984 C-296.16498713 198.79400105 -294.65342874 192.39111512 -293 186 C-292.79036621 185.17999512 -292.58073242 184.35999023 -292.36474609 183.51513672 C-283.55514117 149.82975745 -266.70770621 119.03350991 -245 92 C-244.2059375 90.9996875 -243.411875 89.999375 -242.59375 88.96875 C-231.2484048 75.10221698 -218.3970719 61.7100169 -204 51 C-203.40026367 50.54028809 -202.80052734 50.08057617 -202.18261719 49.60693359 C-169.0520577 24.2542212 -131.06397758 7.36894442 -90 0 C-89.16871582 -0.16226074 -88.33743164 -0.32452148 -87.48095703 -0.49169922 C-59.86348528 -5.76694663 -27.54597458 -5.55756833 0 0 Z M-87 69 C-87.80550293 69.17128418 -88.61100586 69.34256836 -89.44091797 69.51904297 C-121.45106972 76.67441509 -151.06566075 93.87086794 -174.51708984 116.56835938 C-176.06736285 118.06503388 -177.63716113 119.53954178 -179.20703125 121.015625 C-211.81810728 152.14371853 -231.97145201 198.7524377 -233.23828125 243.7109375 C-233.70305369 275.55722828 -228.82636145 305.20853535 -214.91259766 334.1015625 C-214.09220453 335.80819089 -213.30011553 337.52835664 -212.51171875 339.25 C-202.37932054 360.71355903 -185.53787671 382.18310759 -167 397 C-166.07058594 397.75539063 -165.14117187 398.51078125 -164.18359375 399.2890625 C-151.21436533 409.65589946 -137.10872571 418.13707667 -122 425 C-121.25830566 425.33773438 -120.51661133 425.67546875 -119.75244141 426.0234375 C-96.56767165 436.37751725 -71.76630579 441.38851956 -46.42138672 441.31567383 C-44.13330416 441.31251148 -41.84651836 441.33610267 -39.55859375 441.36132812 C-29.07398569 441.40518621 -19.2544857 440.12490772 -9 438 C-7.35620361 437.68119873 -7.35620361 437.68119873 -5.67919922 437.35595703 C36.92277109 428.91143469 76.31356527 404.09223959 103 370 C103.6504126 369.17218018 103.6504126 369.17218018 104.31396484 368.32763672 C121.19107683 346.66674903 132.21331991 322.04958617 138.6875 295.4375 C138.89004395 294.61161377 139.09258789 293.78572754 139.30126953 292.93481445 C142.43242777 279.55753501 143.37589259 266.49088457 143.3125 252.8125 C143.31067719 251.99607025 143.30885437 251.1796405 143.30697632 250.33847046 C143.26188242 238.34393294 142.89846671 226.69668878 140 215 C139.72663818 213.88020752 139.72663818 213.88020752 139.44775391 212.73779297 C138.12224328 207.44128728 136.59936636 202.21930624 135 197 C134.63132812 195.74832031 134.26265625 194.49664062 133.8828125 193.20703125 C127.07569979 171.30690655 115.46346205 151.67756472 101 134 C100.53335937 133.42507812 100.06671875 132.85015625 99.5859375 132.2578125 C71.83009302 98.26803504 33.48365261 77.40051289 -9 68 C-10.05960938 67.76410156 -11.11921875 67.52820313 -12.2109375 67.28515625 C-19.41777126 65.83744918 -26.66206495 65.25390265 -34 65 C-34.97678711 64.96600098 -35.95357422 64.93200195 -36.95996094 64.89697266 C-54.04813756 64.39617367 -70.26738706 65.43715096 -87 69 Z " fill="#89A2FB" transform="translate(301,3)"/>
<path d="M0 0 C0.90186035 0.17692383 1.8037207 0.35384766 2.73291016 0.53613281 C9.20599895 1.83501287 15.60888488 3.34657126 22 5 C22.82000488 5.20963379 23.64000977 5.41926758 24.48486328 5.63525391 C58.17024255 14.44485883 88.96649009 31.29229379 116 53 C117.50046875 54.19109375 117.50046875 54.19109375 119.03125 55.40625 C125.98776212 61.09794174 132.43440744 67.23071498 138.8125 73.5625 C139.60092285 74.34165771 140.3893457 75.12081543 141.20166016 75.92358398 C152.40150939 87.18359673 152.40150939 87.18359673 156 93 C154.72318316 96.83045053 152.44148159 98.20288175 149.3125 100.5 C148.11919705 101.39634435 146.92650904 102.29350784 145.734375 103.19140625 C144.8072168 103.88580811 144.8072168 103.88580811 143.86132812 104.59423828 C140.895758 106.833975 137.97920595 109.1347073 135.0625 111.4375 C133.89198175 112.3594444 132.72140845 113.28131893 131.55078125 114.203125 C130.67607178 114.89245117 130.67607178 114.89245117 129.78369141 115.59570312 C127.97588854 117.01898291 126.1660235 118.43959792 124.35546875 119.859375 C117.54119998 125.20368376 110.74878343 130.57298291 104 136 C99.62498626 134.42789104 97.26596966 130.98726758 94.4375 127.5 C68.29835158 96.23058885 30.19385157 77.6725666 -9 69 C-10.05960937 68.76410156 -11.11921875 68.52820313 -12.2109375 68.28515625 C-19.41777126 66.83744918 -26.66206495 66.25390265 -34 66 C-35.46518066 65.94900146 -35.46518066 65.94900146 -36.95996094 65.89697266 C-54.04813756 65.39617367 -70.26738706 66.43715096 -87 70 C-87.80550293 70.17128418 -88.61100586 70.34256836 -89.44091797 70.51904297 C-122.3752168 77.88099381 -151.92381776 95.74609175 -176 119 C-176.99451097 119.93128942 -177.98930622 120.86227536 -178.984375 121.79296875 C-211.28671394 152.4945764 -230.98966581 199.39882733 -232.23828125 243.7109375 C-232.70305369 275.55722828 -227.82636145 305.20853535 -213.91259766 334.1015625 C-213.09220453 335.80819089 -212.30011553 337.52835664 -211.51171875 339.25 C-206.84316452 349.13944446 -200.65184926 358.33309543 -194 367 C-195.30526072 369.97586763 -196.53637712 371.71842293 -199.1328125 373.6640625 C-199.76574219 374.14133789 -200.39867187 374.61861328 -201.05078125 375.11035156 C-201.73527344 375.61018555 -202.41976562 376.11001953 -203.125 376.625 C-203.83785156 377.15061523 -204.55070312 377.67623047 -205.28515625 378.21777344 C-219.76805325 388.76178061 -235.63963224 399.03989492 -253 404 C-275.43620287 371.68591136 -291.02590212 336.86366654 -298 298 C-298.16226074 297.16871582 -298.32452148 296.33743164 -298.49169922 295.48095703 C-303.76694663 267.86348528 -303.55756833 235.54597458 -298 208 C-297.82307617 207.09813965 -297.64615234 206.1962793 -297.46386719 205.26708984 C-296.16498713 198.79400105 -294.65342874 192.39111512 -293 186 C-292.79036621 185.17999512 -292.58073242 184.35999023 -292.36474609 183.51513672 C-283.55514117 149.82975745 -266.70770621 119.03350991 -245 92 C-244.2059375 90.9996875 -243.411875 89.999375 -242.59375 88.96875 C-231.2484048 75.10221698 -218.3970719 61.7100169 -204 51 C-203.40026367 50.54028809 -202.80052734 50.08057617 -202.18261719 49.60693359 C-169.0520577 24.2542212 -131.06397758 7.36894442 -90 0 C-89.16871582 -0.16226074 -88.33743164 -0.32452148 -87.48095703 -0.49169922 C-59.86348528 -5.76694663 -27.54597458 -5.55756833 0 0 Z " fill="#6B4CE6" transform="translate(301,3)"/>
<path d="M0 0 C5.51443787 4.39744086 8.92841032 9.65479022 9.95703125 16.7109375 C11.56317571 39.33917065 6.27689101 61.0691198 1.2265625 82.96484375 C-0.89053284 92.32246509 -3.26656419 103.2445987 0.45703125 112.3984375 C0.95203125 113.1615625 1.44703125 113.9246875 1.95703125 114.7109375 C1.95703125 115.3709375 1.95703125 116.0309375 1.95703125 116.7109375 C8.24798824 119.43135133 15.07232055 119.99249154 21.609375 117.8359375 C39.8058142 109.31248986 49.06466002 90.16539732 55.70703125 72.1484375 C62.51516036 53.09511862 66.46310457 33.70864028 68.83032227 13.63842773 C69.612559 7.52521461 70.76754743 2.73621004 75.45703125 -1.6015625 C79.65677814 -4.43639165 82.96760334 -4.698032 87.95703125 -4.2890625 C92.29108471 -2.89739396 95.22071919 -1.27848182 97.95703125 2.3984375 C100.18167151 9.76755835 98.73766433 17.44892501 97.56640625 24.921875 C97.42192551 25.87889313 97.27744476 26.83591125 97.12858582 27.82192993 C96.66087166 30.91090183 96.18401236 33.99838431 95.70703125 37.0859375 C95.38027928 39.23297235 95.05419249 41.38010854 94.72875977 43.52734375 C94.09110719 47.73059039 93.4504547 51.93336025 92.80712891 56.13574219 C91.8103308 62.6570837 90.84905489 69.18327831 89.89453125 75.7109375 C87.33913444 93.05782285 84.63631488 110.38284515 81.95703125 127.7109375 C82.87049316 127.44249023 83.78395508 127.17404297 84.72509766 126.89746094 C91.22549313 125.00939347 97.67097766 123.1970093 104.33203125 121.9609375 C105.59789062 121.71859375 106.86375 121.47625 108.16796875 121.2265625 C118.68349541 119.79558361 118.68349541 119.79558361 121.95703125 122.1484375 C123.85237253 127.00524954 123.75383465 131.78183453 121.76953125 136.5859375 C118.07934347 140.91236455 113.82113685 142.18909237 108.37109375 143.28125 C106.48003906 143.66603516 106.48003906 143.66603516 104.55078125 144.05859375 C103.22787284 144.31775046 101.9049561 144.57686472 100.58203125 144.8359375 C99.26675969 145.10203852 97.95165354 145.36895853 96.63671875 145.63671875 C90.75562746 146.81893812 84.90239859 147.90102178 78.95703125 148.7109375 C78.93125 149.319375 78.90546875 149.9278125 78.87890625 150.5546875 C77.3110002 174.78596278 68.12845307 202.08084164 49.95703125 218.7109375 C46.46078156 221.45278808 42.88850629 223.64878779 38.95703125 225.7109375 C38.05210937 226.21753906 37.1471875 226.72414063 36.21484375 227.24609375 C28.77821049 230.78687802 21.85694895 231.19485276 13.70703125 231.2734375 C12.68907471 231.28818115 11.67111816 231.3029248 10.62231445 231.31811523 C0.77023672 231.18392577 -6.14335345 228.19574282 -13.3203125 221.50390625 C-19.90878939 214.64651193 -21.58019046 207.47883376 -21.421875 198.22265625 C-19.82098514 183.38554299 -10.20182392 170.98068256 0.95703125 161.7109375 C13.10222325 152.44954997 27.28108 144.6969862 41.8671875 140.1015625 C43.04087891 139.72801636 43.04087891 139.72801636 44.23828125 139.34692383 C45.71678434 138.8942272 47.20530988 138.47262238 48.703125 138.08862305 C50.99553209 137.47932583 50.99553209 137.47932583 53.95703125 135.7109375 C55.12046564 132.7706821 55.5937705 130.77898883 55.95703125 127.7109375 C56.09471924 126.80126221 56.23240723 125.89158691 56.37426758 124.9543457 C56.81803566 121.93976604 57.20621855 118.92219577 57.58203125 115.8984375 C57.783125 114.34479492 57.783125 114.34479492 57.98828125 112.75976562 C58.70878096 107.25185175 58.70878096 107.25185175 58.95703125 101.7109375 C58.48394531 102.66613281 58.01085937 103.62132812 57.5234375 104.60546875 C48.57700325 122.26224125 37.26475921 134.84522623 18.95703125 142.7109375 C14.28239794 144.108533 9.61242593 143.97295562 4.76953125 144.0234375 C3.86138672 144.05244141 2.95324219 144.08144531 2.01757812 144.11132812 C-7.11381205 144.19630169 -14.3882682 141.23249572 -21.1171875 135.04296875 C-30.04367861 124.23340446 -32.02424429 112.27232584 -31.04296875 98.7109375 C-29.43945032 85.0275802 -26.22392027 71.52107248 -23.14990234 58.11010742 C-19.93383347 44.57990802 -19.93383347 44.57990802 -18.66796875 30.7734375 C-18.62542969 29.18208984 -18.62542969 29.18208984 -18.58203125 27.55859375 C-19.15956352 23.99061898 -20.14417977 22.82052739 -23.04296875 20.7109375 C-27.99031912 19.78390053 -32.42579864 21.64162123 -36.54296875 24.2734375 C-43.30709596 29.22595499 -49.16761255 34.39458452 -54.16796875 41.1484375 C-58.15861073 46.32591712 -58.15861073 46.32591712 -61.85546875 47.0234375 C-65.04296875 46.7109375 -65.04296875 46.7109375 -66.91796875 45.4609375 C-69.39958388 41.6006473 -69.46861371 38.1802096 -69.04296875 33.7109375 C-64.90639496 20.48784488 -51.08632578 7.72075176 -39.29296875 1.1875 C-27.10129185 -4.67127807 -12.17382816 -7.68138297 0 0 Z " fill="#020202" transform="translate(228.04296875,151.2890625)"/>
<path d="M0 0 C-0.07413061 15.82688541 -5.58359723 35.09615339 -16.3125 46.9375 C-22.54976578 52.61518614 -29.08098617 54.71986329 -37.4765625 54.390625 C-41.13161041 53.82482811 -43.30327796 52.48928189 -46 50 C-49.09635842 45.08668126 -48.6698623 39.59158744 -48 34 C-43.70018524 21.18055227 -31.36785659 13.88863479 -20 8 C-3.44827586 0 -3.44827586 0 0 0 Z " fill="#FBFBFB" transform="translate(280,308)"/>
</svg>
