<svg width="34" height="34" viewBox="0 0 34 34" fill="none" xmlns="http://www.w3.org/2000/svg">
<path d="M12.7692 27.7197C5.07692 29.8599 5.07692 24.1529 2 23.4395M23.5385 32V26.4785C23.5962 25.7981 23.4971 25.1142 23.2477 24.4722C22.9984 23.8301 22.6045 23.2446 22.0923 22.7547C26.9231 22.2553 32 20.5575 32 12.7674C31.9996 10.7754 31.1734 8.85981 29.6923 7.41708C30.3936 5.67431 30.344 3.74797 29.5538 2.03823C29.5538 2.03823 27.7385 1.53886 23.5385 4.14982C20.0123 3.26355 16.2954 3.26355 12.7692 4.14982C8.56923 1.53886 6.75385 2.03823 6.75385 2.03823C5.96366 3.74797 5.91407 5.67431 6.61538 7.41708C5.12327 8.87051 4.29619 10.8034 4.30769 12.8102C4.30769 20.5432 9.38461 22.241 14.2154 22.7975C13.7092 23.2825 13.3189 23.861 13.0697 24.4952C12.8205 25.1294 12.7182 25.8051 12.7692 26.4785V32" stroke="white" stroke-width="3" stroke-linecap="round" stroke-linejoin="round"/>
</svg>
