<svg width="558" height="558" viewBox="0 0 558 558" fill="none" xmlns="http://www.w3.org/2000/svg">
<rect y="120.89" width="453.173" height="453.173" transform="rotate(-15.4717 0 120.89)" fill="#030303"/>
<path d="M70.724 162.18L64.6149 139.724L69.3628 138.432L74.407 156.974L84.0343 154.355L85.0993 158.27L70.724 162.18ZM86.8823 133.666L92.9914 156.123L88.2435 157.414L82.1344 134.958L86.8823 133.666ZM96.8977 155.06L90.7887 132.603L105.657 128.558L106.722 132.473L96.6015 135.226L98.0572 140.577L107.191 138.092L108.256 142.007L99.1221 144.492L101.646 153.768L96.8977 155.06ZM114.96 150.146L108.851 127.69L123.983 123.573L125.048 127.488L114.664 130.313L116.119 135.663L125.725 133.05L126.79 136.965L117.184 139.578L118.643 144.94L129.071 142.103L130.136 146.018L114.96 150.146Z" fill="white"/>
<path d="M181.2 113.715C180.871 112.854 180.308 112.269 179.51 111.96C178.711 111.652 177.742 111.652 176.601 111.963C175.826 112.173 175.202 112.461 174.728 112.825C174.252 113.183 173.923 113.59 173.742 114.048C173.567 114.503 173.546 114.973 173.677 115.455C173.772 115.861 173.951 116.189 174.215 116.439C174.487 116.687 174.817 116.876 175.206 117.006C175.592 117.128 176.023 117.211 176.498 117.255C176.971 117.291 177.468 117.297 177.987 117.274L180.136 117.207C181.175 117.16 182.154 117.208 183.072 117.351C183.99 117.493 184.822 117.75 185.566 118.121C186.311 118.491 186.946 118.994 187.472 119.628C188.005 120.26 188.403 121.043 188.664 121.977C189.031 123.353 189.004 124.64 188.584 125.838C188.17 127.026 187.387 128.075 186.237 128.985C185.092 129.885 183.606 130.584 181.779 131.081C179.966 131.574 178.311 131.726 176.815 131.536C175.326 131.344 174.057 130.806 173.008 129.922C171.964 129.028 171.204 127.779 170.728 126.173L175.322 124.923C175.578 125.662 175.965 126.232 176.482 126.633C177.005 127.025 177.623 127.261 178.336 127.342C179.054 127.414 179.822 127.338 180.641 127.115C181.445 126.897 182.111 126.59 182.64 126.195C183.176 125.798 183.551 125.346 183.767 124.84C183.983 124.334 184.017 123.81 183.87 123.269C183.732 122.765 183.467 122.382 183.074 122.12C182.688 121.856 182.177 121.681 181.542 121.594C180.913 121.506 180.163 121.475 179.29 121.5L176.678 121.551C174.659 121.606 172.969 121.293 171.606 120.611C170.243 119.93 169.339 118.759 168.895 117.097C168.518 115.74 168.556 114.453 169.011 113.238C169.473 112.021 170.27 110.953 171.401 110.033C172.532 109.113 173.917 108.43 175.554 107.984C177.221 107.531 178.753 107.42 180.151 107.652C181.556 107.882 182.744 108.411 183.715 109.238C184.686 110.065 185.364 111.145 185.75 112.477L181.2 113.715ZM187.704 109.213L186.639 105.299L205.082 100.281L206.147 104.196L199.272 106.066L204.316 124.608L199.623 125.885L194.579 107.343L187.704 109.213ZM206.804 99.813L212.122 98.3662L219.873 106.644L220.093 106.585L222.582 95.5205L227.901 94.0737L223.659 110.82L225.819 118.759L221.104 120.041L218.944 112.103L206.804 99.813ZM236.603 115.825L230.494 93.3683L235.242 92.0767L240.286 110.619L249.913 108L250.978 111.914L236.603 115.825ZM254.122 111.059L248.013 88.6023L263.145 84.4858L264.21 88.4003L253.826 91.2252L255.282 96.5762L264.887 93.9631L265.952 97.8777L256.347 100.491L257.805 105.853L268.233 103.016L269.298 106.93L254.122 111.059Z" fill="white"/>
<path d="M319.37 78.1818L314.567 79.4884C314.31 78.8909 313.981 78.3877 313.579 77.9788C313.176 77.5626 312.715 77.2404 312.198 77.0122C311.68 76.7839 311.119 76.654 310.514 76.6224C309.916 76.5888 309.295 76.6595 308.652 76.8345C307.489 77.1507 306.556 77.7148 305.85 78.527C305.143 79.3319 304.7 80.3472 304.524 81.5729C304.345 82.7914 304.467 84.1792 304.891 85.7362C305.326 87.3371 305.93 88.6175 306.701 89.5775C307.48 90.5354 308.376 91.1749 309.39 91.4958C310.404 91.8167 311.477 91.823 312.61 91.5148C313.246 91.3418 313.812 91.0976 314.307 90.7823C314.809 90.465 315.229 90.0879 315.565 89.6509C315.9 89.2066 316.142 88.7128 316.293 88.1694C316.451 87.624 316.503 87.0366 316.449 86.4074L321.258 85.1228C321.414 86.1873 321.374 87.266 321.137 88.3588C320.906 89.4424 320.476 90.474 319.848 91.4536C319.225 92.424 318.399 93.2846 317.37 94.0354C316.347 94.7769 315.116 95.3435 313.676 95.7353C311.673 96.2802 309.759 96.3142 307.933 95.8373C306.115 95.3584 304.515 94.3843 303.134 92.915C301.76 91.4437 300.741 89.4873 300.077 87.0457C299.411 84.5968 299.305 82.3882 299.758 80.4197C300.212 78.4513 301.106 76.8027 302.44 75.4741C303.773 74.1381 305.426 73.2016 307.4 72.6647C308.701 72.3107 309.957 72.1653 311.167 72.2285C312.385 72.2898 313.521 72.554 314.574 73.0211C315.626 73.4809 316.559 74.1416 317.375 75.0032C318.197 75.8629 318.862 76.9224 319.37 78.1818ZM344.327 75.008C344.993 77.4569 345.096 79.6665 344.634 81.637C344.181 83.6054 343.28 85.2596 341.933 86.5996C340.592 87.9303 338.93 88.8651 336.949 89.404C334.954 89.9469 333.039 89.9809 331.206 89.506C329.374 89.031 327.763 88.0599 326.375 86.5926C324.986 85.1253 323.96 83.1709 323.296 80.7293C322.629 78.2804 322.523 76.0718 322.977 74.1033C323.431 72.1349 324.328 70.4853 325.67 69.1547C327.01 67.8167 328.677 66.8762 330.673 66.3333C332.654 65.7944 334.561 65.7624 336.394 66.2373C338.232 66.7029 339.846 67.6694 341.234 69.1367C342.63 70.602 343.661 72.5591 344.327 75.008ZM339.513 76.3175C339.082 74.7312 338.48 73.4581 337.709 72.4982C336.944 71.5362 336.058 70.8902 335.05 70.56C334.041 70.2298 332.963 70.2208 331.816 70.533C330.668 70.8452 329.743 71.3991 329.041 72.1946C328.339 72.9902 327.898 73.9972 327.719 75.2156C327.548 76.4321 327.678 77.8335 328.109 79.4198C328.541 81.0061 329.139 82.2802 329.903 83.2421C330.674 84.2021 331.564 84.8471 332.573 85.1773C333.581 85.5076 334.659 85.5166 335.807 85.2043C336.954 84.8921 337.879 84.3382 338.582 83.5427C339.284 82.7471 339.721 81.7411 339.892 80.5247C340.071 79.3062 339.945 77.9038 339.513 76.3175ZM358.859 83.1139L350.898 85.2795L344.789 62.8229L352.816 60.6394C355.075 60.0249 357.141 59.9455 359.016 60.4012C360.889 60.8495 362.492 61.7914 363.824 63.2268C365.164 64.6602 366.151 66.5428 366.786 68.8747C367.422 71.214 367.527 73.3446 367.099 75.2665C366.68 77.1865 365.77 78.8197 364.369 80.1663C362.977 81.5109 361.14 82.4934 358.859 83.1139ZM354.54 79.9198L357.555 79.0995C358.959 78.7177 360.072 78.148 360.894 77.3904C361.722 76.6235 362.234 75.6481 362.43 74.4642C362.631 73.271 362.504 71.8374 362.049 70.1634C361.597 68.504 360.983 67.2146 360.207 66.2952C359.439 65.3738 358.508 64.7948 357.415 64.5582C356.322 64.3216 355.074 64.3943 353.67 64.7761L350.644 65.5994L354.54 79.9198ZM373.363 79.1682L367.254 56.7116L382.386 52.5951L383.451 56.5097L373.067 59.3345L374.523 64.6855L384.128 62.0724L385.193 65.987L375.588 68.6001L377.046 73.962L387.474 71.1252L388.539 75.0398L373.363 79.1682Z" fill="white"/>
</svg>
