<svg width="558" height="558" viewBox="0 0 558 558" fill="none" xmlns="http://www.w3.org/2000/svg">
<rect y="120.889" width="453.173" height="453.173" transform="rotate(-15.4717 0 120.889)" fill="#030303"/>
<path d="M70.724 162.18L64.6149 139.723L69.3628 138.431L74.407 156.974L84.0343 154.354L85.0993 158.269L70.724 162.18ZM86.8823 133.665L92.9914 156.122L88.2435 157.414L82.1344 134.957L86.8823 133.665ZM96.8977 155.059L90.7887 132.603L105.657 128.558L106.722 132.472L96.6015 135.226L98.0572 140.577L107.191 138.092L108.256 142.006L99.1221 144.491L101.646 153.768L96.8977 155.059ZM114.96 150.146L108.851 127.689L123.983 123.573L125.048 127.487L114.664 130.312L116.119 135.663L125.725 133.05L126.79 136.964L117.184 139.578L118.643 144.94L129.071 142.103L130.136 146.017L114.96 150.146Z" fill="white"/>
<path d="M181.201 113.714C180.873 112.854 180.309 112.269 179.511 111.96C178.712 111.651 177.743 111.652 176.603 111.962C175.828 112.173 175.203 112.461 174.729 112.825C174.253 113.182 173.925 113.59 173.743 114.047C173.568 114.503 173.547 114.972 173.678 115.454C173.773 115.861 173.952 116.189 174.217 116.439C174.488 116.687 174.818 116.875 175.207 117.005C175.594 117.128 176.024 117.211 176.5 117.254C176.973 117.29 177.469 117.297 177.989 117.273L180.137 117.207C181.177 117.16 182.155 117.207 183.073 117.35C183.992 117.493 184.823 117.75 185.568 118.12C186.312 118.491 186.947 118.993 187.473 119.627C188.006 120.26 188.404 121.043 188.666 121.976C189.032 123.353 189.005 124.64 188.585 125.837C188.171 127.026 187.388 128.075 186.238 128.984C185.094 129.884 183.607 130.583 181.78 131.08C179.967 131.573 178.312 131.725 176.816 131.536C175.327 131.344 174.058 130.806 173.009 129.922C171.965 129.028 171.205 127.778 170.729 126.173L175.324 124.923C175.58 125.662 175.966 126.232 176.484 126.633C177.006 127.024 177.624 127.261 178.337 127.342C179.055 127.413 179.824 127.338 180.642 127.115C181.446 126.896 182.113 126.589 182.641 126.194C183.177 125.797 183.553 125.346 183.768 124.839C183.984 124.333 184.018 123.81 183.871 123.269C183.734 122.764 183.469 122.381 183.075 122.119C182.689 121.855 182.179 121.68 181.543 121.594C180.914 121.506 180.164 121.474 179.291 121.5L176.679 121.551C174.661 121.605 172.97 121.292 171.607 120.611C170.244 119.93 169.34 118.758 168.896 117.097C168.519 115.739 168.558 114.453 169.012 113.238C169.474 112.021 170.271 110.952 171.402 110.032C172.534 109.112 173.918 108.429 175.556 107.984C177.222 107.53 178.755 107.42 180.152 107.652C181.558 107.882 182.746 108.411 183.716 109.238C184.687 110.065 185.366 111.144 185.752 112.476L181.201 113.714ZM187.705 109.213L186.64 105.298L205.083 100.281L206.148 104.195L199.273 106.066L204.317 124.608L199.624 125.884L194.58 107.342L187.705 109.213ZM206.805 99.8125L212.123 98.3657L219.875 106.644L220.094 106.584L222.584 95.52L227.902 94.0733L223.66 110.819L225.82 118.758L221.105 120.041L218.945 112.102L206.805 99.8125ZM236.604 115.824L230.495 93.3678L235.243 92.0762L240.287 110.618L249.914 107.999L250.979 111.914L236.604 115.824ZM254.124 111.058L248.015 88.6018L263.146 84.4853L264.211 88.3998L253.827 91.2247L255.283 96.5757L264.888 93.9626L265.953 97.8772L256.348 100.49L257.807 105.852L268.234 103.015L269.299 106.93L254.124 111.058Z" fill="white"/>
<path d="M319.37 78.1821L314.567 79.4886C314.31 78.8911 313.981 78.3879 313.579 77.979C313.176 77.5629 312.715 77.2406 312.198 77.0124C311.68 76.7842 311.119 76.6542 310.514 76.6226C309.916 76.589 309.295 76.6597 308.652 76.8347C307.489 77.1509 306.555 77.7151 305.85 78.5272C305.142 79.3321 304.7 80.3474 304.523 81.5732C304.345 82.7916 304.467 84.1794 304.891 85.7365C305.326 87.3374 305.93 88.6178 306.701 89.5777C307.48 90.5357 308.376 91.1751 309.39 91.496C310.403 91.8169 311.477 91.8233 312.61 91.515C313.246 91.342 313.812 91.0979 314.307 90.7826C314.809 90.4653 315.229 90.0882 315.565 89.6512C315.9 89.2069 316.142 88.713 316.293 88.1696C316.451 87.6242 316.503 87.0369 316.449 86.4076L321.258 85.123C321.414 86.1875 321.374 87.2662 321.137 88.3591C320.906 89.4426 320.476 90.4742 319.848 91.4539C319.224 92.4242 318.399 93.2848 317.37 94.0356C316.347 94.7771 315.116 95.3438 313.676 95.7356C311.673 96.2804 309.758 96.3144 307.933 95.8375C306.115 95.3586 304.515 94.3845 303.134 92.9152C301.76 91.444 300.741 89.4875 300.077 87.046C299.411 84.5971 299.304 82.3884 299.758 80.42C300.212 78.4516 301.106 76.803 302.44 75.4743C303.773 74.1383 305.426 73.2018 307.4 72.6649C308.701 72.3109 309.957 72.1656 311.167 72.2288C312.385 72.29 313.521 72.5542 314.574 73.0213C315.626 73.4811 316.559 74.1418 317.375 75.0035C318.197 75.8631 318.862 76.9226 319.37 78.1821ZM344.327 75.0082C344.993 77.4571 345.095 79.6668 344.634 81.6372C344.181 83.6056 343.28 85.2599 341.933 86.5998C340.592 87.9305 338.93 88.8653 336.949 89.4042C334.953 89.9471 333.039 89.9811 331.206 89.5062C329.373 89.0313 327.763 88.0602 326.374 86.5929C324.986 85.1256 323.96 83.1711 323.296 80.7296C322.629 78.2807 322.523 76.072 322.977 74.1036C323.431 72.1351 324.328 70.4856 325.67 69.1549C327.01 67.8169 328.677 66.8765 330.673 66.3336C332.654 65.7947 334.561 65.7627 336.394 66.2376C338.232 66.7032 339.845 67.6697 341.234 69.137C342.629 70.6023 343.66 72.5594 344.327 75.0082ZM339.513 76.3178C339.081 74.7315 338.48 73.4584 337.708 72.4984C336.944 71.5365 336.058 70.8904 335.05 70.5602C334.041 70.23 332.963 70.221 331.815 70.5332C330.668 70.8454 329.743 71.3993 329.041 72.1949C328.339 72.9904 327.898 73.9974 327.719 75.2159C327.548 76.4324 327.678 77.8338 328.109 79.42C328.541 81.0063 329.139 82.2804 329.903 83.2424C330.674 84.2023 331.564 84.8474 332.573 85.1776C333.581 85.5078 334.659 85.5168 335.807 85.2046C336.954 84.8924 337.879 84.3385 338.581 83.5429C339.284 82.7474 339.72 81.7414 339.892 80.5249C340.071 79.3064 339.944 77.9041 339.513 76.3178ZM358.859 83.1141L350.898 85.2798L344.789 62.8232L352.816 60.6396C355.074 60.0251 357.141 59.9457 359.016 60.4014C360.889 60.8498 362.491 61.7917 363.824 63.227C365.164 64.6604 366.151 66.5431 366.785 68.875C367.422 71.2142 367.526 73.3448 367.099 75.2667C366.68 77.1867 365.77 78.82 364.369 80.1666C362.976 81.5112 361.14 82.4937 358.859 83.1141ZM354.539 79.9201L357.555 79.0998C358.958 78.7179 360.071 78.1482 360.894 77.3906C361.722 76.6237 362.233 75.6483 362.43 74.4644C362.631 73.2712 362.504 71.8376 362.049 70.1636C361.597 68.5042 360.983 67.2148 360.207 66.2954C359.438 65.374 358.508 64.795 357.415 64.5584C356.322 64.3219 355.074 64.3945 353.67 64.7763L350.644 65.5996L354.539 79.9201ZM373.363 79.1684L367.254 56.7118L382.386 52.5953L383.451 56.5099L373.067 59.3348L374.522 64.6857L384.128 62.0727L385.193 65.9872L375.587 68.6003L377.046 73.9623L387.474 71.1255L388.539 75.04L373.363 79.1684Z" fill="white"/>
</svg>
