<svg width="139" height="625" viewBox="0 0 139 625" fill="none" xmlns="http://www.w3.org/2000/svg">
<path d="M45 618.688L0.199997 618.688L0.199996 607.616L26.76 591.296L26.696 599.936L0.199995 583.424L0.199995 572.736L45 572.736L45 584.96L33.032 584.96C29.192 584.96 25.736 584.875 22.664 584.704C19.592 584.491 16.5413 584.149 13.512 583.68L17.288 582.272L35.016 593.728L35.016 597.952L17.288 609.152L13.512 607.744C16.3707 607.275 19.3147 606.955 22.344 606.784C25.3307 606.571 28.8933 606.464 33.032 606.464L45 606.464L45 618.688ZM45 550.733L22.664 550.733L25.8 550.285L0.199995 568.397L0.199994 554.189L20.04 540.365L19.848 547.853L0.199993 535.373L0.199992 521.549L26.504 538.893L22.152 537.933L45 537.933L45 550.733Z" fill="#655CDF"/>
<path d="M138 604.896L70.8 624.384L70.8 605.28L103.056 596.544C104.912 596.096 106.736 595.712 108.528 595.392C110.256 595.008 111.888 594.72 113.424 594.528C114.896 594.336 116.272 594.176 117.552 594.048C118.832 593.92 119.888 593.824 120.72 593.76L120.72 595.584C118.8 595.392 116.944 595.232 115.152 595.104C113.296 594.912 111.408 594.624 109.488 594.24C107.504 593.856 105.36 593.28 103.056 592.512L78.288 583.488L78.288 568.8L103.056 559.872C105.488 558.976 107.728 558.304 109.776 557.856C111.76 557.344 113.648 556.96 115.44 556.704C117.232 556.448 118.96 556.256 120.624 556.128L120.72 557.76C119.76 557.696 118.8 557.664 117.84 557.664C116.88 557.664 115.888 557.632 114.864 557.568C113.776 557.504 112.624 557.408 111.408 557.28C110.192 557.152 108.912 556.96 107.568 556.704C106.16 556.448 104.656 556.128 103.056 555.744L70.8 547.008L70.8 528.48L138 548.064L138 562.848L100.848 578.016L100.848 575.712L138 589.344L138 604.896ZM138 520.876L70.8 520.876L70.8 472.012L86.448 472.012L86.448 502.636L122.352 502.636L122.352 470.572L138 470.572L138 520.876ZM111.312 511.852L96.528 511.852L96.528 475.852L111.312 475.852L111.312 511.852ZM138 457.594L70.8 457.594L70.8 427.162C70.8 422.426 71.472 418.426 72.816 415.162C74.16 411.834 76.048 409.306 78.48 407.578C80.912 405.85 83.792 404.986 87.12 404.986C91.088 404.986 94.384 405.914 97.008 407.77C99.632 409.626 101.392 412.314 102.288 415.834L100.464 416.122C101.168 413.178 102.32 410.618 103.92 408.442C105.456 406.202 107.376 404.474 109.68 403.258C111.92 402.042 114.512 401.434 117.456 401.434C120.912 401.434 123.92 402.074 126.48 403.354C129.04 404.57 131.184 406.33 132.912 408.634C134.64 410.874 135.92 413.498 136.752 416.506C137.584 419.45 138 422.682 138 426.202L138 457.594ZM122.736 439.834L122.736 426.778C122.736 425.306 122.512 424.09 122.064 423.13C121.552 422.106 120.816 421.338 119.856 420.826C118.896 420.25 117.744 419.962 116.4 419.962C115.12 419.962 114.064 420.25 113.232 420.826C112.4 421.402 111.76 422.234 111.312 423.322C110.8 424.41 110.544 425.722 110.544 427.258L110.544 439.834L122.736 439.834ZM97.392 439.834L97.392 430.234C97.392 428.698 97.168 427.418 96.72 426.394C96.272 425.37 95.632 424.602 94.8 424.09C93.904 423.578 92.88 423.322 91.728 423.322C90 423.322 88.624 423.898 87.6 425.05C86.576 426.202 86.064 428.026 86.064 430.522L86.064 439.834L97.392 439.834ZM138.96 334.054C138.96 338.854 138.416 343.142 137.328 346.918C136.24 350.63 134.672 353.926 132.624 356.806C130.576 359.622 128.176 362.15 125.424 364.39L112.848 353.254C117.008 350.054 119.792 346.758 121.2 343.366C122.544 339.974 123.216 336.678 123.216 333.478C123.216 332.07 123.088 330.79 122.832 329.638C122.512 328.486 122.032 327.622 121.392 327.046C120.688 326.406 119.824 326.086 118.8 326.086C117.904 326.086 117.136 326.342 116.496 326.854C115.856 327.366 115.312 328.07 114.864 328.966C114.352 329.862 113.904 330.854 113.52 331.942C113.136 333.03 112.848 334.118 112.656 335.206C112.4 336.294 112.144 337.35 111.888 338.374C111.056 342.15 110 345.446 108.72 348.262C107.44 351.078 105.936 353.446 104.208 355.366C102.416 357.222 100.368 358.63 98.064 359.59C95.76 360.486 93.168 360.934 90.288 360.934C87.152 360.934 84.272 360.198 81.648 358.726C79.024 357.254 76.784 355.302 74.928 352.87C73.008 350.438 71.568 347.654 70.608 344.518C69.584 341.318 69.072 337.99 69.072 334.534C69.072 329.798 69.552 325.766 70.512 322.438C71.408 319.11 72.72 316.326 74.448 314.086C76.176 311.782 78.192 309.798 80.496 308.134L91.44 319.462C89.968 320.806 88.752 322.278 87.792 323.878C86.832 325.414 86.128 327.014 85.68 328.678C85.168 330.342 84.912 332.038 84.912 333.766C84.912 335.366 85.072 336.774 85.392 337.99C85.712 339.142 86.192 340.038 86.832 340.678C87.408 341.318 88.208 341.638 89.232 341.638C90.128 341.638 90.928 341.286 91.632 340.582C92.272 339.878 92.816 338.982 93.264 337.894C93.712 336.806 94.096 335.654 94.416 334.438C94.672 333.158 94.896 332.006 95.088 330.982C95.792 327.462 96.72 324.262 97.872 321.382C98.96 318.438 100.368 315.878 102.096 313.702C103.76 311.526 105.808 309.862 108.24 308.71C110.672 307.558 113.52 306.982 116.784 306.982C121.584 306.982 125.648 308.198 128.976 310.63C132.24 312.998 134.736 316.23 136.464 320.326C138.128 324.358 138.96 328.934 138.96 334.054ZM118.704 282.436L103.92 288.388L70.8 255.844L70.8 233.956L118.704 282.436ZM138 295.876L70.8 295.876L70.8 276.868L138 276.868L138 295.876ZM138 253.348L105.744 277.924L94.992 265.444L138 231.556L138 253.348ZM138 225.49L122.448 225.49L122.448 213.778L86.352 213.778L86.352 225.49L70.8 225.49L70.8 183.154L86.352 183.154L86.352 194.77L122.448 194.77L122.448 183.154L138 183.154L138 225.49ZM138 168.001L70.8 168.001L70.8 148.993L121.584 148.993L121.584 119.713L138 119.713L138 168.001ZM138 109.126L70.8 109.126L70.8 90.1177L121.584 90.1177L121.584 60.8377L138 60.8377L138 109.126ZM138.96 27.2107C138.96 32.0107 138.416 36.2987 137.328 40.0747C136.24 43.7867 134.672 47.0827 132.624 49.9627C130.576 52.7787 128.176 55.3067 125.424 57.5467L112.848 46.4107C117.008 43.2107 119.792 39.9147 121.2 36.5227C122.544 33.1307 123.216 29.8347 123.216 26.6347C123.216 25.2267 123.088 23.9467 122.832 22.7947C122.512 21.6427 122.032 20.7787 121.392 20.2027C120.688 19.5627 119.824 19.2427 118.8 19.2427C117.904 19.2427 117.136 19.4987 116.496 20.0107C115.856 20.5227 115.312 21.2267 114.864 22.1227C114.352 23.0187 113.904 24.0107 113.52 25.0987C113.136 26.1867 112.848 27.2747 112.656 28.3627C112.4 29.4507 112.144 30.5067 111.888 31.5307C111.056 35.3067 110 38.6027 108.72 41.4187C107.44 44.2347 105.936 46.6027 104.208 48.5227C102.416 50.3787 100.368 51.7867 98.064 52.7467C95.76 53.6427 93.168 54.0907 90.288 54.0907C87.152 54.0907 84.272 53.3547 81.648 51.8827C79.024 50.4107 76.784 48.4587 74.928 46.0267C73.008 43.5947 71.568 40.8107 70.608 37.6747C69.584 34.4747 69.072 31.1467 69.072 27.6907C69.072 22.9547 69.552 18.9227 70.512 15.5947C71.408 12.2667 72.72 9.48274 74.448 7.24274C76.176 4.93874 78.192 2.95474 80.496 1.29074L91.44 12.6187C89.968 13.9627 88.752 15.4347 87.792 17.0347C86.832 18.5707 86.128 20.1707 85.68 21.8347C85.168 23.4987 84.912 25.1947 84.912 26.9227C84.912 28.5227 85.072 29.9307 85.392 31.1467C85.712 32.2987 86.192 33.1947 86.832 33.8347C87.408 34.4747 88.208 34.7947 89.232 34.7947C90.128 34.7947 90.928 34.4427 91.632 33.7387C92.272 33.0347 92.816 32.1387 93.264 31.0507C93.712 29.9627 94.096 28.8107 94.416 27.5947C94.672 26.3147 94.896 25.1627 95.088 24.1387C95.792 20.6187 96.72 17.4187 97.872 14.5387C98.96 11.5947 100.368 9.03474 102.096 6.85874C103.76 4.68274 105.808 3.01874 108.24 1.86674C110.672 0.714743 113.52 0.138743 116.784 0.138743C121.584 0.138742 125.648 1.35474 128.976 3.78674C132.24 6.15474 134.736 9.38674 136.464 13.4827C138.128 17.5147 138.96 22.0907 138.96 27.2107Z" fill="#65D2BC"/>
</svg>
