<svg width="196" height="567" viewBox="0 0 196 567" fill="none" xmlns="http://www.w3.org/2000/svg">
<path d="M92 560.688L47.2 560.688L47.2 549.616L73.76 533.296L73.696 541.936L47.2 525.424L47.2 514.736L92 514.736L92 526.96L80.032 526.96C76.192 526.96 72.736 526.875 69.664 526.704C66.592 526.491 63.5413 526.149 60.512 525.68L64.288 524.272L82.016 535.728L82.016 539.952L64.288 551.152L60.512 549.744C63.3707 549.275 66.3147 548.955 69.344 548.784C72.3307 548.571 75.8933 548.464 80.032 548.464L92 548.464L92 560.688ZM92 492.733L69.664 492.733L72.8 492.285L47.2 510.397L47.2 496.189L67.04 482.365L66.848 489.853L47.2 477.373L47.2 463.549L73.504 480.893L69.152 479.933L92 479.933L92 492.733Z" fill="#655CDF"/>
<path d="M185 546.896L117.8 566.384L117.8 547.28L150.056 538.544C151.912 538.096 153.736 537.712 155.528 537.392C157.256 537.008 158.888 536.72 160.424 536.528C161.896 536.336 163.272 536.176 164.552 536.048C165.832 535.92 166.888 535.824 167.72 535.76L167.72 537.584C165.8 537.392 163.944 537.232 162.152 537.104C160.296 536.912 158.408 536.624 156.488 536.24C154.504 535.856 152.36 535.28 150.056 534.512L125.288 525.488L125.288 510.8L150.056 501.872C152.488 500.976 154.728 500.304 156.776 499.856C158.76 499.344 160.648 498.96 162.44 498.704C164.232 498.448 165.96 498.256 167.624 498.128L167.72 499.76C166.76 499.696 165.8 499.664 164.84 499.664C163.88 499.664 162.888 499.632 161.864 499.568C160.776 499.504 159.624 499.408 158.408 499.28C157.192 499.152 155.912 498.96 154.568 498.704C153.16 498.448 151.656 498.128 150.056 497.744L117.8 489.008L117.8 470.48L185 490.064L185 504.848L147.848 520.016L147.848 517.712L185 531.344L185 546.896ZM185 462.876L117.8 462.876L117.8 414.012L133.448 414.012L133.448 444.636L169.352 444.636L169.352 412.572L185 412.572L185 462.876ZM158.312 453.852L143.528 453.852L143.528 417.852L158.312 417.852L158.312 453.852ZM185 399.594L117.8 399.594L117.8 369.162C117.8 364.426 118.472 360.426 119.816 357.162C121.16 353.834 123.048 351.306 125.48 349.578C127.912 347.85 130.792 346.986 134.12 346.986C138.088 346.986 141.384 347.914 144.008 349.77C146.632 351.626 148.392 354.314 149.288 357.834L147.464 358.122C148.168 355.178 149.32 352.618 150.92 350.442C152.456 348.202 154.376 346.474 156.68 345.258C158.92 344.042 161.512 343.434 164.456 343.434C167.912 343.434 170.92 344.074 173.48 345.354C176.04 346.57 178.184 348.33 179.912 350.634C181.64 352.874 182.92 355.498 183.752 358.506C184.584 361.45 185 364.682 185 368.202L185 399.594ZM169.736 381.834L169.736 368.778C169.736 367.306 169.512 366.09 169.064 365.13C168.552 364.106 167.816 363.338 166.856 362.826C165.896 362.25 164.744 361.962 163.4 361.962C162.12 361.962 161.064 362.25 160.232 362.826C159.4 363.402 158.76 364.234 158.312 365.322C157.8 366.41 157.544 367.722 157.544 369.258L157.544 381.834L169.736 381.834ZM144.392 381.834L144.392 372.234C144.392 370.698 144.168 369.418 143.72 368.394C143.272 367.37 142.632 366.602 141.8 366.09C140.904 365.578 139.88 365.322 138.728 365.322C137 365.322 135.624 365.898 134.6 367.05C133.576 368.202 133.064 370.026 133.064 372.522L133.064 381.834L144.392 381.834ZM185.96 276.054C185.96 280.854 185.416 285.142 184.328 288.918C183.24 292.63 181.672 295.926 179.624 298.806C177.576 301.622 175.176 304.15 172.424 306.39L159.848 295.254C164.008 292.054 166.792 288.758 168.2 285.366C169.544 281.974 170.216 278.678 170.216 275.478C170.216 274.07 170.088 272.79 169.832 271.638C169.512 270.486 169.032 269.622 168.392 269.046C167.688 268.406 166.824 268.086 165.8 268.086C164.904 268.086 164.136 268.342 163.496 268.854C162.856 269.366 162.312 270.07 161.864 270.966C161.352 271.862 160.904 272.854 160.52 273.942C160.136 275.03 159.848 276.118 159.656 277.206C159.4 278.294 159.144 279.35 158.888 280.374C158.056 284.15 157 287.446 155.72 290.262C154.44 293.078 152.936 295.446 151.208 297.366C149.416 299.222 147.368 300.63 145.064 301.59C142.76 302.486 140.168 302.934 137.288 302.934C134.152 302.934 131.272 302.198 128.648 300.726C126.024 299.254 123.784 297.302 121.928 294.87C120.008 292.438 118.568 289.654 117.608 286.518C116.584 283.318 116.072 279.99 116.072 276.534C116.072 271.798 116.552 267.766 117.512 264.438C118.408 261.11 119.72 258.326 121.448 256.086C123.176 253.782 125.192 251.798 127.496 250.134L138.44 261.462C136.968 262.806 135.752 264.278 134.792 265.878C133.832 267.414 133.128 269.014 132.68 270.678C132.168 272.342 131.912 274.038 131.912 275.766C131.912 277.366 132.072 278.774 132.392 279.99C132.712 281.142 133.192 282.038 133.832 282.678C134.408 283.318 135.208 283.638 136.232 283.638C137.128 283.638 137.928 283.286 138.632 282.582C139.272 281.878 139.816 280.982 140.264 279.894C140.712 278.806 141.096 277.654 141.416 276.438C141.672 275.158 141.896 274.006 142.088 272.982C142.792 269.462 143.72 266.262 144.872 263.382C145.96 260.438 147.368 257.878 149.096 255.702C150.76 253.526 152.808 251.862 155.24 250.71C157.672 249.558 160.52 248.982 163.784 248.982C168.584 248.982 172.648 250.198 175.976 252.63C179.24 254.998 181.736 258.23 183.464 262.326C185.128 266.358 185.96 270.934 185.96 276.054ZM165.704 224.436L150.92 230.388L117.8 197.844L117.8 175.956L165.704 224.436ZM185 237.876L117.8 237.876L117.8 218.868L185 218.868L185 237.876ZM185 195.348L152.744 219.924L141.992 207.444L185 173.556L185 195.348ZM185 167.49L169.448 167.49L169.448 155.778L133.352 155.778L133.352 167.49L117.8 167.49L117.8 125.154L133.352 125.154L133.352 136.77L169.448 136.77L169.448 125.154L185 125.154L185 167.49ZM185 110.001L117.8 110.001L117.8 90.9927L168.584 90.9927L168.584 61.7127L185 61.7127L185 110.001ZM185 51.1257L117.8 51.1257L117.8 32.1177L168.584 32.1177L168.584 2.83774L185 2.83774L185 51.1257Z" fill="#65D2BC"/>
<path d="M6.5 523.506L23.2362 538L6.5 552.494L6.5 523.506Z" stroke="white"/>
</svg>
