<svg width="460" height="460" viewBox="0 0 460 460" fill="none" xmlns="http://www.w3.org/2000/svg">
<circle cx="230.13" cy="230.153" r="191.5" transform="rotate(77.3295 230.13 230.153)" fill="#DDDFFF"/>
<path d="M93.6037 262.869L78.2138 271.226L77.932 269.912L88.5618 264.196C89.0602 263.925 89.5105 263.698 89.9128 263.513C90.296 263.317 90.681 263.128 91.0676 262.947C91.4352 262.753 91.8464 262.534 92.3012 262.289L92.3918 262.712C91.5336 262.601 90.8435 262.512 90.3216 262.444C89.7841 262.379 89.3377 262.319 88.9823 262.265C88.6113 262.213 88.2732 262.163 87.9681 262.114L79.9153 260.846L79.6939 259.814L86.529 255.402C86.7402 255.243 86.9921 255.082 87.2849 254.921C87.5587 254.748 87.9274 254.522 88.3911 254.242C88.8358 253.951 89.4532 253.548 90.2432 253.035L90.3807 253.447C89.8845 253.423 89.4967 253.408 89.2174 253.402C88.938 253.397 88.7151 253.387 88.5485 253.374C88.3664 253.364 88.1937 253.36 88.0306 253.362C87.8674 253.365 87.6445 253.355 87.3618 253.334C87.079 253.313 86.6801 253.284 86.1649 253.247L74.1781 252.405L73.8963 251.091L91.3544 252.38L91.5708 253.389L81.3099 260.253L81.2763 259.867L93.3924 261.884L93.6037 262.869Z" fill="black"/>
<path d="M90.5701 245.296L73.8308 246.723L72.997 236.942L74.2166 236.838L74.9444 245.375L89.2445 244.156L88.5269 235.739L89.7465 235.635L90.5701 245.296ZM82.4823 245.359L81.2627 245.463L80.598 237.667L81.8176 237.563L82.4823 245.359Z" fill="black"/>
<path d="M89.7538 230.871L72.9589 230.457L73.1224 223.835C73.146 222.875 73.3421 222.064 73.7106 221.401C74.0795 220.722 74.5803 220.206 75.2132 219.853C75.8301 219.501 76.5385 219.334 77.3382 219.354C78.3299 219.378 79.1778 219.719 79.8817 220.377C80.5861 221.018 81.0293 221.87 81.2111 222.93L80.8249 223.017C80.9445 222.059 81.2204 221.258 81.6525 220.612C82.0689 219.951 82.5932 219.459 83.2253 219.139C83.8418 218.802 84.5419 218.643 85.3257 218.663C86.0295 218.68 86.6665 218.808 87.2368 219.046C87.8075 219.268 88.2951 219.616 88.6995 220.09C89.1043 220.548 89.4182 221.124 89.6412 221.818C89.8481 222.511 89.9399 223.33 89.9167 224.274L89.7538 230.871ZM88.561 229.594L88.6924 224.267C88.7291 222.78 88.4357 221.7 87.8121 221.029C87.1729 220.341 86.3574 219.984 85.3657 219.96C84.6619 219.943 84.0499 220.095 83.5298 220.419C83.0097 220.742 82.598 221.212 82.2947 221.829C81.9757 222.429 81.8052 223.177 81.7831 224.073L81.6511 229.423L88.561 229.594ZM80.4275 229.393L80.5565 224.163C80.5727 223.507 80.4512 222.92 80.1919 222.401C79.917 221.866 79.5514 221.441 79.095 221.126C78.6227 220.81 78.0826 220.644 77.4748 220.629C76.579 220.607 75.8436 220.901 75.2683 221.511C74.6771 222.121 74.3681 222.969 74.3413 224.057L74.2134 229.24L80.4275 229.393Z" fill="black"/>
<path d="M91.9162 205.863L75.4895 202.341L76.7776 196.334C77.0057 195.27 77.422 194.32 78.0267 193.484C78.6347 192.633 79.3801 191.942 80.263 191.411C81.1336 190.861 82.1114 190.498 83.1965 190.322C84.2817 190.145 85.4265 190.186 86.6311 190.444C87.8201 190.699 88.8733 191.13 89.7907 191.735C90.7081 192.341 91.4589 193.075 92.0433 193.937C92.631 194.783 93.0276 195.719 93.2331 196.744C93.442 197.755 93.4323 198.792 93.2042 199.855L91.9162 205.863ZM91.1922 204.431L90.9458 204.55L91.9823 199.716C92.1768 198.809 92.1859 197.927 92.0094 197.071C91.8363 196.199 91.5006 195.399 91.0023 194.671C90.504 193.942 89.8598 193.321 89.0698 192.808C88.2831 192.279 87.3814 191.906 86.3645 191.688C85.3476 191.47 84.372 191.441 83.4378 191.601C82.5069 191.745 81.6648 192.047 80.9116 192.507C80.1584 192.967 79.5241 193.56 79.0089 194.284C78.497 194.992 78.1438 195.8 77.9492 196.707L76.9027 201.589L76.7133 201.327L91.1922 204.431Z" fill="black"/>
<path d="M96.1616 188.772L80.2487 183.385L83.3962 174.088L84.5556 174.48L81.8082 182.596L95.4024 187.198L98.1113 179.196L99.2706 179.588L96.1616 188.772ZM88.7235 185.595L87.5641 185.203L90.0729 177.792L91.2323 178.185L88.7235 185.595Z" fill="black"/>
<path d="M103.079 171.158L85.094 169.977L85.7023 168.672L99.9132 169.656C100.257 169.675 100.562 169.702 100.828 169.738C101.101 169.759 101.348 169.777 101.571 169.792C101.793 169.808 101.987 169.828 102.152 169.852C102.324 169.861 102.475 169.879 102.604 169.904L102.432 170.273C102.307 170.162 102.16 170.023 101.991 169.856C101.807 169.682 101.594 169.477 101.351 169.24C101.101 168.982 100.825 168.703 100.523 168.404L90.5588 158.252L91.1874 156.904L103.637 169.961L103.079 171.158Z" fill="black"/>
<path d="M108.412 160.898L94.0535 152.177L99.1496 143.787L100.196 144.422L95.7476 151.745L108.014 159.196L112.4 151.976L113.446 152.612L108.412 160.898ZM101.844 156.179L100.798 155.543L104.86 148.856L105.906 149.492L101.844 156.179Z" fill="black"/>
<path d="M116.3 148.75L102.927 138.581L103.683 137.588L116.081 147.016L121.064 140.463L122.038 141.204L116.3 148.75Z" fill="black"/>
<path d="M130.299 132.7C129.463 133.561 128.545 134.208 127.544 134.641C126.543 135.051 125.505 135.259 124.43 135.263C123.366 135.256 122.322 135.034 121.298 134.596C120.261 134.147 119.29 133.483 118.383 132.602C117.476 131.721 116.784 130.77 116.305 129.747C115.826 128.724 115.567 127.682 115.529 126.618C115.491 125.533 115.668 124.489 116.061 123.488C116.453 122.464 117.067 121.521 117.903 120.66C118.739 119.8 119.664 119.158 120.676 118.736C121.676 118.303 122.714 118.095 123.79 118.114C124.853 118.121 125.903 118.349 126.939 118.797C127.987 119.235 128.958 119.888 129.853 120.758C130.76 121.638 131.447 122.596 131.915 123.63C132.394 124.653 132.652 125.695 132.69 126.758C132.729 127.822 132.551 128.865 132.159 129.889C131.755 130.902 131.135 131.839 130.299 132.7ZM129.421 131.847C130.135 131.112 130.655 130.313 130.982 129.448C131.308 128.583 131.454 127.699 131.418 126.794C131.371 125.878 131.143 124.988 130.734 124.122C130.325 123.257 129.737 122.451 128.968 121.704C128.199 120.957 127.376 120.392 126.499 120.009C125.611 119.615 124.708 119.407 123.791 119.387C122.874 119.366 121.989 119.532 121.134 119.884C120.279 120.235 119.495 120.779 118.781 121.513C118.079 122.236 117.565 123.03 117.238 123.895C116.911 124.76 116.771 125.65 116.818 126.566C116.866 127.482 117.099 128.378 117.52 129.254C117.928 130.119 118.517 130.925 119.286 131.672C120.308 132.664 121.426 133.338 122.642 133.694C123.869 134.038 125.075 134.06 126.258 133.76C127.43 133.449 128.485 132.811 129.421 131.847Z" fill="black"/>
<path d="M139.067 124.231L128.549 111.132L133.471 107.18C134.182 106.609 134.93 106.275 135.714 106.179C136.511 106.072 137.284 106.18 138.035 106.501C138.797 106.812 139.474 107.335 140.065 108.071C140.686 108.845 141.086 109.662 141.265 110.524C141.457 111.376 141.43 112.198 141.184 112.991C140.94 113.761 140.463 114.431 139.752 115.002L135.803 118.173L140.041 123.45L139.067 124.231ZM135.037 117.218L139.041 114.003C139.528 113.612 139.848 113.129 140.002 112.554C140.169 111.969 140.172 111.361 140.014 110.729C139.868 110.087 139.554 109.466 139.073 108.868C138.633 108.319 138.135 107.929 137.58 107.697C137.027 107.443 136.462 107.353 135.885 107.427C135.31 107.478 134.78 107.698 134.293 108.089L130.288 111.305L135.037 117.218Z" fill="black"/>
<path d="M151.258 115.042L142.198 100.894L150.465 95.6004L151.125 96.6312L143.909 101.252L151.649 113.338L158.763 108.782L159.423 109.813L151.258 115.042ZM147.435 107.914L146.775 106.883L153.364 102.664L154.024 103.695L147.435 107.914Z" fill="black"/>
<path d="M163.642 107.602L156.186 92.5467L161.928 89.7028C162.76 89.291 163.583 89.1152 164.399 89.1756C165.229 89.2288 165.986 89.4964 166.671 89.9785C167.371 90.4534 167.933 91.121 168.359 91.9813C168.793 92.8559 168.997 93.7368 168.972 94.624C168.961 95.5041 168.733 96.3046 168.287 97.0256C167.855 97.7395 167.223 98.3024 166.391 98.7142L161.767 101.004L164.76 107.048L163.642 107.602ZM172.825 103.053L165.781 98.4006L166.814 97.5137L174.18 102.382L172.825 103.053ZM161.224 99.9074L166.02 97.5322C166.593 97.2481 167.028 96.8455 167.323 96.3243C167.619 95.8031 167.757 95.2168 167.738 94.5656C167.712 93.9001 167.528 93.2232 167.187 92.5349C166.868 91.8897 166.451 91.3908 165.937 91.0383C165.431 90.6642 164.873 90.4582 164.265 90.4201C163.657 90.382 163.038 90.5192 162.407 90.8316L157.847 93.0897L161.224 99.9074Z" fill="black"/>
<path d="M189.492 97.0756L180.36 82.1325L181.658 81.784L187.91 92.108C188.205 92.5919 188.455 93.03 188.66 93.4224C188.876 93.7951 189.085 94.1699 189.285 94.5467C189.497 94.904 189.737 95.3035 190.005 95.7452L189.587 95.8572C189.654 94.9944 189.708 94.3007 189.749 93.776C189.786 93.2359 189.823 92.787 189.86 92.4293C189.892 92.0562 189.925 91.716 189.958 91.4088L190.813 83.3017L191.833 83.0279L196.588 89.6287C196.758 89.8315 196.931 90.0749 197.107 90.3591C197.294 90.6236 197.539 90.9803 197.841 91.4292C198.155 91.8584 198.589 92.4544 199.142 93.2172L198.737 93.3756C198.736 92.8788 198.731 92.4907 198.722 92.2115C198.714 91.9322 198.712 91.709 198.717 91.5421C198.717 91.3596 198.712 91.187 198.702 91.0242C198.691 90.8614 198.689 90.6382 198.696 90.3548C198.703 90.0713 198.711 89.6714 198.722 89.1551L198.95 77.1409L200.248 76.7923L199.853 94.2935L198.856 94.5611L191.477 84.6641L191.861 84.6109L190.466 96.8142L189.492 97.0756Z" fill="black"/>
<path d="M206.888 93.1494L204.607 76.5049L214.333 75.1726L214.499 76.3853L206.01 77.5482L207.958 91.7674L216.328 90.6207L216.494 91.8334L206.888 93.1494ZM206.411 85.0753L206.245 83.8627L213.997 82.8007L214.163 84.0134L206.411 85.0753Z" fill="black"/>
<path d="M221.251 91.5973L220.807 74.8032L227.429 74.6282C228.389 74.6028 229.209 74.7572 229.89 75.0913C230.587 75.425 231.128 75.8989 231.512 76.513C231.896 77.111 232.099 77.8099 232.12 78.6096C232.146 79.6013 231.849 80.4654 231.228 81.2021C230.623 81.9383 229.796 82.4244 228.746 82.6602L228.639 82.2789C229.602 82.3495 230.416 82.584 231.083 82.9826C231.765 83.3647 232.283 83.8632 232.635 84.4781C233.003 85.0766 233.197 85.7677 233.218 86.5514C233.237 87.2551 233.141 87.8979 232.933 88.4796C232.74 89.0609 232.417 89.5656 231.964 89.9937C231.528 90.4214 230.968 90.7643 230.287 91.0224C229.605 91.2645 228.792 91.398 227.849 91.4229L221.251 91.5973ZM222.466 90.3408L227.792 90.2C229.28 90.1607 230.343 89.8125 230.982 89.1554C231.636 88.4818 231.951 87.6493 231.924 86.6576C231.906 85.9539 231.722 85.3505 231.372 84.8476C231.023 84.3446 230.532 83.9574 229.901 83.686C229.285 83.3982 228.53 83.2661 227.634 83.2898L222.284 83.4312L222.466 90.3408ZM222.251 82.2076L227.482 82.0694C228.137 82.052 228.718 81.9007 229.222 81.6152C229.742 81.3134 230.148 80.9265 230.44 80.4547C230.731 79.9668 230.869 79.419 230.853 78.8112C230.829 77.9155 230.498 77.196 229.859 76.6527C229.22 76.0934 228.357 75.8281 227.269 75.8568L222.087 75.9938L222.251 82.2076Z" fill="black"/>
<path d="M246.337 92.4792L249.016 75.894L255.081 76.8736C256.155 77.047 257.125 77.4144 257.991 77.9755C258.872 78.5393 259.6 79.2484 260.176 80.1031C260.769 80.9444 261.182 81.9025 261.413 82.9771C261.645 84.0518 261.662 85.1973 261.466 86.4135C261.272 87.614 260.896 88.6877 260.338 89.6349C259.78 90.582 259.085 91.3694 258.255 91.997C257.44 92.6271 256.525 93.071 255.511 93.3286C254.513 93.5888 253.477 93.6322 252.403 93.4587L246.337 92.4792ZM247.73 91.683L247.599 91.443L252.48 92.2312C253.396 92.3792 254.277 92.3432 255.123 92.1232C255.984 91.9058 256.766 91.5297 257.468 90.9948C258.171 90.4599 258.758 89.7849 259.23 88.9697C259.718 88.1571 260.044 87.2374 260.21 86.2107C260.376 85.184 260.355 84.2082 260.148 83.2834C259.957 82.3611 259.612 81.5355 259.114 80.8068C258.616 80.078 257.992 79.4749 257.242 78.9973C256.509 78.5222 255.684 78.2107 254.768 78.0628L249.84 77.2669L250.091 77.0644L247.73 91.683Z" fill="black"/>
<path d="M263.623 95.8464L268.19 79.6792L277.637 82.3478L277.304 83.5257L269.059 81.1964L265.157 95.0078L273.287 97.3045L272.954 98.4824L263.623 95.8464ZM266.416 88.2558L266.749 87.0779L274.278 89.2049L273.945 90.3828L266.416 88.2558Z" fill="black"/>
<path d="M281.568 101.855L281.828 83.833L283.163 84.3739L282.906 98.6165C282.905 98.9611 282.893 99.2671 282.871 99.5344C282.864 99.8077 282.858 100.056 282.854 100.279C282.85 100.501 282.84 100.696 282.825 100.862C282.824 101.035 282.814 101.186 282.796 101.317L282.418 101.163C282.522 101.033 282.654 100.879 282.812 100.702C282.976 100.509 283.171 100.286 283.395 100.031C283.639 99.7681 283.904 99.4782 284.187 99.1616L293.817 88.6919L295.196 89.2508L282.791 102.351L281.568 101.855Z" fill="black"/>
<path d="M292.086 106.657L300.063 91.8719L308.702 96.5329L308.121 97.6101L300.581 93.5417L293.766 106.173L301.201 110.184L300.619 111.261L292.086 106.657ZM296.464 99.8565L297.046 98.7793L303.931 102.494L303.35 103.572L296.464 99.8565Z" fill="black"/>
<path d="M304.621 113.914L314.094 100.04L315.124 100.743L306.342 113.607L313.141 118.249L312.451 119.26L304.621 113.914Z" fill="black"/>
<path d="M321.366 127.075C320.464 126.284 319.771 125.4 319.287 124.423C318.826 123.444 318.565 122.418 318.506 121.345C318.459 120.282 318.628 119.228 319.012 118.182C319.408 117.124 320.022 116.12 320.855 115.169C321.688 114.219 322.603 113.478 323.6 112.948C324.597 112.418 325.625 112.106 326.685 112.014C327.767 111.92 328.819 112.044 329.839 112.385C330.881 112.724 331.854 113.289 332.756 114.08C333.659 114.871 334.347 115.762 334.82 116.751C335.304 117.728 335.564 118.754 335.601 119.829C335.648 120.892 335.474 121.952 335.079 123.01C334.695 124.078 334.092 125.081 333.27 126.02C332.437 126.97 331.515 127.706 330.507 128.225C329.51 128.756 328.481 129.067 327.422 129.16C326.362 129.252 325.311 129.128 324.268 128.789C323.236 128.437 322.268 127.866 321.366 127.075ZM322.173 126.155C322.943 126.829 323.768 127.308 324.648 127.59C325.529 127.873 326.42 127.973 327.321 127.891C328.233 127.797 329.111 127.524 329.954 127.071C330.798 126.619 331.573 125.99 332.279 125.184C332.986 124.377 333.508 123.527 333.846 122.631C334.195 121.724 334.356 120.812 334.329 119.896C334.303 118.979 334.093 118.103 333.697 117.267C333.302 116.431 332.72 115.676 331.95 115.001C331.192 114.336 330.372 113.863 329.492 113.581C328.612 113.299 327.716 113.205 326.804 113.299C325.891 113.393 325.008 113.672 324.154 114.136C323.311 114.588 322.536 115.218 321.83 116.024C320.891 117.095 320.275 118.246 319.982 119.479C319.701 120.722 319.74 121.927 320.101 123.093C320.471 124.248 321.162 125.269 322.173 126.155Z" fill="black"/>
<path d="M330.271 135.4L342.816 124.226L347.014 128.94C347.621 129.621 347.992 130.35 348.128 131.129C348.275 131.919 348.208 132.697 347.925 133.463C347.654 134.241 347.166 134.943 346.461 135.571C345.72 136.231 344.924 136.672 344.072 136.895C343.231 137.13 342.409 137.145 341.605 136.939C340.823 136.736 340.129 136.293 339.523 135.612L336.155 131.831L331.101 136.332L330.271 135.4ZM337.069 131.016L340.485 134.852C340.9 135.318 341.398 135.613 341.98 135.737C342.573 135.873 343.181 135.846 343.804 135.656C344.438 135.477 345.041 135.132 345.615 134.621C346.14 134.153 346.505 133.636 346.707 133.07C346.933 132.505 346.994 131.936 346.891 131.363C346.811 130.792 346.563 130.273 346.148 129.808L342.732 125.972L337.069 131.016Z" fill="black"/>
<path d="M340.071 147.105L353.738 137.335L359.446 145.32L358.451 146.032L353.468 139.062L341.792 147.408L346.706 154.281L345.71 154.993L340.071 147.105ZM346.994 142.923L347.99 142.211L352.54 148.576L351.544 149.288L346.994 142.923Z" fill="black"/>
<path d="M348.134 159.093L362.788 150.878L365.922 156.467C366.376 157.277 366.593 158.09 366.575 158.908C366.564 159.739 366.335 160.509 365.889 161.218C365.45 161.941 364.812 162.537 363.975 163.006C363.124 163.484 362.254 163.733 361.367 163.753C360.487 163.787 359.676 163.6 358.933 163.191C358.198 162.796 357.604 162.194 357.15 161.384L354.627 156.883L348.744 160.181L348.134 159.093ZM353.145 168.032L357.432 160.759L358.371 161.746L353.885 169.351L353.145 168.032ZM355.695 156.285L358.312 160.953C358.625 161.512 359.049 161.925 359.585 162.193C360.12 162.462 360.713 162.57 361.362 162.518C362.026 162.458 362.692 162.24 363.362 161.864C363.99 161.512 364.467 161.07 364.793 160.539C365.141 160.014 365.318 159.447 365.325 158.838C365.332 158.229 365.163 157.617 364.819 157.003L362.331 152.565L355.695 156.285Z" fill="black"/>
<path d="M359.967 184.372L374.424 174.489L374.838 175.767L364.847 182.538C364.379 182.858 363.954 183.13 363.573 183.354C363.211 183.589 362.848 183.816 362.482 184.036C362.136 184.266 361.749 184.526 361.321 184.816L361.188 184.405C362.053 184.427 362.749 184.445 363.275 184.46C363.816 184.47 364.266 184.483 364.626 184.502C365 184.515 365.341 184.53 365.65 184.548L373.79 184.988L374.116 185.992L367.766 191.078C367.572 191.258 367.338 191.443 367.063 191.633C366.809 191.834 366.465 192.096 366.032 192.422C365.619 192.757 365.046 193.221 364.313 193.812L364.134 193.415C364.63 193.389 365.017 193.365 365.296 193.342C365.574 193.319 365.797 193.305 365.964 193.302C366.146 193.293 366.318 193.279 366.48 193.26C366.643 193.241 366.865 193.228 367.149 193.22C367.432 193.213 367.832 193.201 368.348 193.185L380.358 192.799L380.773 194.078L363.274 194.577L362.956 193.595L372.463 185.72L372.536 186.101L360.277 185.331L359.967 184.372Z" fill="black"/>
<path d="M364.776 201.544L381.283 198.417L383.11 208.061L381.907 208.289L380.312 199.871L366.211 202.542L367.784 210.843L366.581 211.071L364.776 201.544ZM372.815 200.656L374.018 200.428L375.474 208.116L374.272 208.343L372.815 200.656Z" fill="black"/>
<path d="M367.06 215.81L383.809 214.509L384.322 221.113C384.397 222.07 384.284 222.897 383.985 223.594C383.688 224.307 383.242 224.872 382.648 225.287C382.071 225.701 381.383 225.939 380.585 226.001C379.596 226.078 378.718 225.825 377.951 225.243C377.185 224.676 376.657 223.875 376.368 222.838L376.743 222.712C376.722 223.677 376.529 224.502 376.165 225.189C375.819 225.89 375.347 226.432 374.751 226.815C374.172 227.213 373.492 227.442 372.71 227.503C372.008 227.558 371.362 227.496 370.77 227.317C370.18 227.154 369.659 226.857 369.208 226.427C368.759 226.013 368.388 225.472 368.095 224.804C367.819 224.136 367.644 223.331 367.571 222.39L367.06 215.81ZM368.377 216.959L368.789 222.271C368.904 223.755 369.307 224.799 369.995 225.403C370.701 226.022 371.549 226.293 372.538 226.217C373.24 226.162 373.833 225.947 374.318 225.573C374.802 225.198 375.164 224.689 375.402 224.044C375.658 223.415 375.752 222.653 375.682 221.76L375.268 216.424L368.377 216.959ZM376.488 216.329L376.893 221.545C376.944 222.199 377.125 222.771 377.436 223.26C377.764 223.765 378.171 224.15 378.657 224.417C379.159 224.683 379.713 224.793 380.319 224.746C381.213 224.676 381.914 224.309 382.424 223.643C382.95 222.977 383.171 222.101 383.087 221.016L382.686 215.848L376.488 216.329Z" fill="black"/>
<path d="M367.46 240.908L384.16 242.736L383.492 248.844C383.373 249.925 383.056 250.913 382.54 251.806C382.022 252.715 381.351 253.478 380.527 254.096C379.717 254.732 378.781 255.193 377.72 255.479C376.658 255.765 375.515 255.841 374.29 255.707C373.082 255.575 371.99 255.254 371.016 254.745C370.041 254.236 369.219 253.583 368.55 252.785C367.879 252.004 367.389 251.113 367.08 250.114C366.769 249.13 366.673 248.097 366.792 247.016L367.46 240.908ZM368.326 242.259L368.559 242.115L368.021 247.03C367.92 247.952 368.001 248.83 368.264 249.664C368.525 250.513 368.941 251.275 369.511 251.949C370.081 252.623 370.785 253.175 371.623 253.605C372.46 254.05 373.395 254.33 374.429 254.443C375.463 254.556 376.436 254.486 377.349 254.231C378.26 253.993 379.067 253.607 379.77 253.072C380.472 252.537 381.043 251.883 381.481 251.11C381.918 250.354 382.187 249.514 382.288 248.591L382.831 243.629L383.046 243.87L368.326 242.259Z" fill="black"/>
<path d="M364.98 258.343L381.359 262.079L379.176 271.649L377.983 271.377L379.888 263.023L365.896 259.832L364.017 268.069L362.824 267.797L364.98 258.343ZM372.703 260.745L373.896 261.017L372.157 268.645L370.963 268.373L372.703 260.745Z" fill="black"/>
<path d="M359.896 276.571L377.907 275.911L377.435 277.271L363.198 277.742C362.854 277.758 362.548 277.762 362.28 277.754C362.007 277.761 361.758 277.768 361.536 277.775C361.313 277.783 361.118 277.783 360.951 277.776C360.779 277.784 360.627 277.782 360.496 277.77L360.63 277.385C360.765 277.482 360.926 277.606 361.111 277.755C361.311 277.909 361.545 278.092 361.81 278.302C362.086 278.533 362.389 278.782 362.719 279.05L373.667 288.132L373.18 289.538L359.463 277.818L359.896 276.571Z" fill="black"/>
<path d="M355.637 287.321L370.81 294.533L366.597 303.398L365.491 302.873L369.169 295.135L356.207 288.974L352.58 296.604L351.475 296.078L355.637 287.321ZM362.652 291.346L363.758 291.872L360.399 298.938L359.294 298.413L362.652 291.346Z" fill="black"/>
<path d="M349.029 300.211L363.37 308.962L362.72 310.027L349.424 301.914L345.136 308.941L344.091 308.303L349.029 300.211Z" fill="black"/>
<path d="M336.741 317.606C337.485 316.664 338.333 315.927 339.284 315.394C340.238 314.883 341.249 314.571 342.318 314.457C343.377 314.355 344.439 314.47 345.503 314.801C346.579 315.141 347.613 315.704 348.605 316.487C349.597 317.271 350.383 318.147 350.964 319.115C351.545 320.084 351.908 321.095 352.055 322.148C352.204 323.224 352.134 324.281 351.845 325.317C351.559 326.376 351.045 327.376 350.301 328.317C349.557 329.259 348.703 329.991 347.739 330.515C346.788 331.048 345.776 331.36 344.705 331.452C343.646 331.553 342.578 331.433 341.502 331.093C340.415 330.764 339.382 330.213 338.403 329.44C337.411 328.656 336.63 327.774 336.059 326.793C335.479 325.824 335.115 324.813 334.969 323.76C334.822 322.706 334.892 321.65 335.178 320.591C335.476 319.542 335.998 318.547 336.741 317.606ZM337.702 318.364C337.067 319.168 336.631 320.016 336.394 320.91C336.157 321.803 336.103 322.698 336.231 323.595C336.371 324.501 336.689 325.363 337.184 326.183C337.679 327.002 338.347 327.743 339.188 328.408C340.029 329.073 340.905 329.551 341.817 329.842C342.74 330.144 343.659 330.258 344.574 330.185C345.488 330.112 346.352 329.857 347.166 329.42C347.981 328.983 348.705 328.362 349.34 327.559C349.965 326.768 350.396 325.925 350.633 325.032C350.87 324.138 350.918 323.239 350.778 322.332C350.637 321.426 350.313 320.559 349.806 319.73C349.311 318.91 348.643 318.169 347.802 317.504C346.685 316.621 345.503 316.065 344.257 315.835C343.001 315.618 341.8 315.719 340.653 316.139C339.519 316.568 338.535 317.31 337.702 318.364Z" fill="black"/>
<path d="M328.882 326.924L340.682 338.882L336.189 343.316C335.54 343.956 334.83 344.365 334.06 344.541C333.278 344.728 332.497 344.7 331.718 344.457C330.928 344.226 330.201 343.774 329.538 343.102C328.841 342.396 328.36 341.623 328.094 340.784C327.816 339.956 327.76 339.136 327.924 338.322C328.087 337.531 328.494 336.816 329.143 336.175L332.747 332.618L327.994 327.801L328.882 326.924ZM333.607 333.489L329.951 337.097C329.507 337.535 329.238 338.048 329.143 338.636C329.038 339.235 329.096 339.84 329.318 340.453C329.529 341.077 329.904 341.662 330.443 342.208C330.938 342.71 331.473 343.047 332.049 343.22C332.625 343.417 333.196 343.449 333.762 343.317C334.329 343.207 334.834 342.933 335.278 342.495L338.934 338.888L333.607 333.489Z" fill="black"/>
<path d="M317.693 337.309L328.148 350.459L320.465 356.568L319.703 355.61L326.41 350.278L317.478 339.044L310.865 344.302L310.103 343.344L317.693 337.309ZM322.223 344.01L322.985 344.968L316.861 349.837L316.099 348.879L322.223 344.01Z" fill="black"/>
<path d="M306.132 345.974L315.085 360.19L309.663 363.605C308.878 364.099 308.076 364.358 307.259 364.381C306.428 364.413 305.647 364.224 304.916 363.814C304.172 363.413 303.544 362.806 303.033 361.994C302.513 361.168 302.22 360.313 302.154 359.428C302.075 358.551 302.22 357.731 302.591 356.969C302.948 356.214 303.519 355.59 304.304 355.096L308.67 352.346L305.076 346.639L306.132 345.974ZM297.461 351.435L304.943 355.345L304.005 356.333L296.181 352.241L297.461 351.435ZM309.322 353.381L304.794 356.234C304.252 356.575 303.861 357.019 303.62 357.568C303.38 358.117 303.302 358.714 303.387 359.36C303.481 360.019 303.733 360.674 304.142 361.324C304.526 361.933 304.991 362.387 305.538 362.685C306.081 363.006 306.656 363.154 307.265 363.13C307.874 363.105 308.476 362.906 309.071 362.531L313.377 359.819L309.322 353.381Z" fill="black"/>
<path d="M281.491 359.082L292.1 373.016L290.844 373.495L283.572 363.862C283.229 363.411 282.935 363.001 282.691 362.631C282.438 362.283 282.193 361.931 281.955 361.577C281.708 361.243 281.428 360.87 281.117 360.458L281.521 360.304C281.543 361.169 281.56 361.865 281.572 362.391C281.59 362.932 281.599 363.382 281.599 363.742C281.605 364.116 281.607 364.458 281.605 364.767L281.582 372.919L280.595 373.295L275.192 367.214C275.002 367.03 274.805 366.805 274.601 366.54C274.388 366.296 274.108 365.967 273.761 365.551C273.405 365.156 272.913 364.607 272.286 363.905L272.672 363.706C272.724 364.2 272.768 364.586 272.805 364.863C272.842 365.14 272.867 365.361 272.879 365.528C272.897 365.709 272.92 365.881 272.947 366.042C272.974 366.202 272.999 366.424 273.021 366.707C273.043 366.989 273.075 367.388 273.118 367.903L274.116 379.878L272.861 380.357L271.468 362.907L272.432 362.539L280.782 371.631L280.407 371.723L280.549 359.442L281.491 359.082Z" fill="black"/>
<path d="M264.586 364.763L268.552 381.088L259.014 383.405L258.725 382.216L267.051 380.193L263.662 366.247L255.453 368.241L255.164 367.052L264.586 364.763ZM265.884 372.746L266.173 373.936L258.57 375.783L258.281 374.593L265.884 372.746Z" fill="black"/>
<path d="M250.456 367.772L252.611 384.433L246.042 385.283C245.09 385.406 244.258 385.336 243.546 385.073C242.819 384.812 242.233 384.396 241.788 383.824C241.345 383.269 241.072 382.594 240.969 381.801C240.842 380.817 241.05 379.927 241.592 379.131C242.119 378.337 242.892 377.769 243.913 377.427L244.057 377.795C243.093 377.823 242.259 377.673 241.555 377.345C240.837 377.034 240.271 376.591 239.858 376.015C239.431 375.457 239.167 374.79 239.067 374.012C238.976 373.314 239.005 372.665 239.154 372.065C239.286 371.467 239.556 370.932 239.963 370.46C240.353 369.99 240.875 369.592 241.526 369.266C242.18 368.955 242.975 368.739 243.911 368.618L250.456 367.772ZM249.376 369.146L244.092 369.829C242.616 370.02 241.594 370.475 241.025 371.194C240.443 371.931 240.216 372.791 240.343 373.775C240.433 374.473 240.678 375.054 241.077 375.519C241.475 375.984 242.003 376.319 242.659 376.524C243.301 376.748 244.066 376.802 244.954 376.687L250.262 376.001L249.376 369.146ZM250.419 377.215L245.23 377.886C244.58 377.97 244.018 378.18 243.545 378.515C243.059 378.868 242.694 379.295 242.452 379.794C242.212 380.309 242.131 380.868 242.209 381.471C242.324 382.359 242.727 383.041 243.418 383.517C244.11 384.008 244.996 384.184 246.075 384.044L251.216 383.379L250.419 377.215Z" fill="black"/>
<path d="M225.411 369.454L224.438 386.226L218.305 385.87C217.218 385.807 216.216 385.54 215.298 385.071C214.364 384.6 213.567 383.968 212.907 383.177C212.231 382.401 211.723 381.49 211.383 380.444C211.043 379.399 210.909 378.261 210.98 377.031C211.05 375.817 211.315 374.711 211.773 373.711C212.232 372.712 212.843 371.858 213.605 371.149C214.351 370.439 215.216 369.904 216.198 369.545C217.165 369.184 218.191 369.035 219.277 369.098L225.411 369.454ZM224.107 370.388L224.262 370.613L219.326 370.327C218.4 370.273 217.527 370.399 216.708 370.704C215.873 371.008 215.133 371.462 214.489 372.066C213.845 372.67 213.33 373.401 212.944 374.26C212.541 375.118 212.31 376.066 212.25 377.105C212.19 378.143 212.31 379.112 212.61 380.01C212.895 380.908 213.322 381.694 213.892 382.369C214.462 383.043 215.144 383.579 215.938 383.978C216.716 384.375 217.569 384.601 218.495 384.655L223.479 384.944L223.249 385.171L224.107 370.388Z" fill="black"/>
<path d="M207.872 367.867L204.977 384.416L195.308 382.725L195.519 381.519L203.959 382.995L206.431 368.858L198.11 367.403L198.321 366.197L207.872 367.867ZM205.868 375.703L205.657 376.909L197.95 375.561L198.161 374.355L205.868 375.703Z" fill="black"/>
<path d="M189.408 363.72L190.987 381.675L189.605 381.273L188.407 367.078C188.373 366.735 188.354 366.43 188.348 366.162C188.328 365.889 188.308 365.642 188.289 365.42C188.27 365.198 188.26 365.003 188.259 364.836C188.242 364.665 188.236 364.513 188.241 364.381L188.633 364.495C188.542 364.635 188.427 364.802 188.288 364.994C188.144 365.203 187.974 365.445 187.777 365.721C187.56 366.008 187.327 366.323 187.077 366.667L178.566 378.064L177.137 377.649L188.14 363.352L189.408 363.72Z" fill="black"/>
<path d="M178.455 360.017L172.027 375.539L162.958 371.783L163.426 370.652L171.343 373.93L176.833 360.67L169.028 357.438L169.496 356.307L178.455 360.017ZM174.793 367.229L174.325 368.359L167.096 365.366L167.564 364.235L174.793 367.229Z" fill="black"/>
<path d="M165.244 354.076L157.237 368.844L156.139 368.25L163.564 354.557L156.327 350.633L156.91 349.557L165.244 354.076Z" fill="black"/>
<path d="M147.244 342.692C148.223 343.387 149.002 344.196 149.583 345.118C150.142 346.045 150.506 347.039 150.674 348.101C150.829 349.153 150.769 350.219 150.493 351.298C150.208 352.391 149.699 353.453 148.967 354.483C148.235 355.514 147.401 356.344 146.463 356.973C145.526 357.602 144.534 358.017 143.49 358.217C142.423 358.421 141.364 358.405 140.315 358.17C139.243 357.939 138.217 357.475 137.239 356.781C136.261 356.086 135.486 355.27 134.914 354.335C134.333 353.412 133.969 352.418 133.823 351.352C133.668 350.3 133.733 349.228 134.018 348.135C134.29 347.033 134.788 345.973 135.51 344.956C136.242 343.925 137.084 343.1 138.034 342.48C138.972 341.851 139.963 341.436 141.008 341.236C142.052 341.036 143.111 341.052 144.183 341.283C145.246 341.527 146.266 341.997 147.244 342.692ZM146.536 343.69C145.701 343.097 144.831 342.705 143.927 342.514C143.022 342.323 142.126 342.314 141.237 342.488C140.339 342.675 139.494 343.036 138.701 343.572C137.908 344.108 137.202 344.813 136.581 345.687C135.96 346.561 135.528 347.46 135.283 348.385C135.029 349.324 134.961 350.247 135.081 351.156C135.201 352.066 135.5 352.916 135.978 353.707C136.456 354.498 137.113 355.19 137.948 355.783C138.77 356.366 139.633 356.754 140.537 356.945C141.442 357.136 142.343 357.138 143.241 356.951C144.139 356.765 144.988 356.397 145.79 355.848C146.583 355.312 147.29 354.607 147.911 353.733C148.735 352.572 149.23 351.363 149.396 350.107C149.549 348.842 149.387 347.648 148.909 346.524C148.423 345.413 147.631 344.468 146.536 343.69Z" fill="black"/>
<path d="M137.537 335.319L126.197 347.714L121.54 343.454C120.867 342.838 120.423 342.15 120.208 341.389C119.981 340.618 119.969 339.837 120.172 339.047C120.362 338.246 120.776 337.497 121.414 336.8C122.083 336.068 122.83 335.548 123.655 335.24C124.467 334.92 125.284 334.822 126.105 334.944C126.903 335.067 127.638 335.436 128.311 336.052L132.048 339.47L136.616 334.476L137.537 335.319ZM131.221 340.373L127.432 336.906C126.971 336.485 126.445 336.242 125.854 336.178C125.25 336.103 124.648 336.192 124.048 336.445C123.436 336.688 122.871 337.092 122.352 337.659C121.877 338.178 121.567 338.73 121.423 339.314C121.257 339.899 121.254 340.471 121.415 341.03C121.553 341.59 121.852 342.081 122.313 342.502L126.102 345.969L131.221 340.373Z" fill="black"/>
<path d="M126.594 324.674L113.995 335.788L107.501 328.427L108.419 327.617L114.087 334.042L124.85 324.548L119.262 318.213L120.179 317.403L126.594 324.674ZM120.133 329.541L119.215 330.351L114.04 324.483L114.958 323.674L120.133 329.541Z" fill="black"/>
<path d="M117.35 313.573L103.61 323.24L99.9223 317.999C99.3883 317.24 99.0888 316.453 99.024 315.638C98.9499 314.809 99.0987 314.02 99.4705 313.269C99.8331 312.506 100.407 311.848 101.192 311.295C101.99 310.734 102.83 310.397 103.71 310.286C104.582 310.162 105.408 310.266 106.188 310.597C106.96 310.915 107.613 311.453 108.147 312.212L111.116 316.433L116.631 312.552L117.35 313.573ZM111.453 305.191L107.93 312.864L106.896 311.977L110.583 303.955L111.453 305.191ZM110.115 317.137L107.035 312.76C106.667 312.236 106.203 311.868 105.642 311.656C105.082 311.444 104.482 311.397 103.841 311.515C103.187 311.642 102.546 311.927 101.918 312.369C101.329 312.783 100.9 313.271 100.63 313.833C100.338 314.391 100.219 314.973 100.274 315.58C100.33 316.186 100.56 316.778 100.965 317.353L103.893 321.515L110.115 317.137Z" fill="black"/>
</svg>
