<svg width="241" height="294" viewBox="0 0 241 294" fill="none" xmlns="http://www.w3.org/2000/svg">
<path d="M227.783 156C228.783 155.667 230.283 155.5 232.283 155.5C237.95 155.5 240.783 159.167 240.783 166.5C240.783 170.5 239.866 173.917 238.033 176.75C236.366 179.417 233.7 181.083 230.033 181.75C214.866 184.583 199.95 187.75 185.283 191.25L184.533 197.25C179.866 230.083 170.533 254.333 156.533 270C142.7 285.833 125.366 293.75 104.533 293.75C90.6996 293.75 79.9496 290.333 72.2829 283.5C64.7829 276.833 61.0329 268.25 61.0329 257.75C61.0329 240.25 68.8663 224.667 84.5329 211C100.2 197.333 123.95 185.25 155.783 174.75L160.783 139.5C161.45 135.5 162.283 130.167 163.283 123.5C155.45 144.167 145.45 159.583 133.283 169.75C121.116 179.917 107.533 185 92.5329 185C78.1996 185 67.2829 180.667 59.7829 172C52.2829 163.167 48.5329 151.833 48.5329 138C48.5329 131.833 49.1996 125.083 50.5329 117.75C51.8663 110.25 53.9496 100.167 56.7829 87.5C59.2829 76 61.1163 66.8333 62.2829 60C63.6163 53.1667 64.2829 47.0833 64.2829 41.75C64.2829 33.75 61.1996 29.75 55.0329 29.75C50.1996 29.75 44.4496 32.1667 37.7829 37C31.2829 41.6667 24.3663 48.9167 17.0329 58.75C14.6996 61.9167 12.1163 63.5 9.28293 63.5C6.9496 63.5 4.86626 62.4167 3.03293 60.25C1.36626 57.9167 0.532928 55.3333 0.532928 52.5C0.532928 47.3333 2.86626 41.5 7.53293 35C24.5329 11.6667 44.4496 -1.23978e-05 67.2829 -1.23978e-05C77.4496 -1.23978e-05 85.3663 3.08332 91.0329 9.24999C96.8663 15.4167 99.7829 24.5 99.7829 36.5C99.7829 45.1667 98.9496 54.0833 97.2829 63.25C95.7829 72.25 93.4496 83.75 90.2829 97.75C88.2829 106.083 86.7829 112.833 85.7829 118C84.7829 123 84.2829 127.167 84.2829 130.5C84.2829 139 85.7829 145.083 88.7829 148.75C91.7829 152.417 97.0329 154.25 104.533 154.25C113.533 154.25 122.7 149.333 132.033 139.5C141.533 129.5 150.033 114.417 157.533 94.25C165.2 74.0833 170.7 49.4167 174.033 20.25C174.866 12.9167 176.783 7.74999 179.783 4.74999C182.783 1.58332 187.116 -1.23978e-05 192.783 -1.23978e-05C204.45 -1.23978e-05 210.283 5.83332 210.283 17.5C210.283 19.5 210.2 21.0833 210.033 22.25C206.533 47.0833 203.283 69.5 200.283 89.5C198.616 101.5 196.783 113.833 194.783 126.5C192.95 139.167 191.116 152 189.283 165C201.45 161.667 214.283 158.667 227.783 156ZM152.033 201C111.7 215 91.5329 232 91.5329 252C91.5329 256.667 92.9496 260.5 95.7829 263.5C98.7829 266.667 102.95 268.25 108.283 268.25C131.45 268.25 145.95 246.417 151.783 202.75L152.033 201Z" fill="black"/>
</svg>
